<?xml version="1.0" encoding="UTF-8" standalone="no"?>
<!-- Created with Inkscape (http://www.inkscape.org/) -->

<svg
   width="220"
   height="210"
   viewBox="0 0 58.208339 55.562499"
   version="1.1"
   id="svg2228"
   sodipodi:docname="logo.svg"
   inkscape:version="1.2.1 (9c6d41e410, 2022-07-14)"
   xmlns:inkscape="http://www.inkscape.org/namespaces/inkscape"
   xmlns:sodipodi="http://sodipodi.sourceforge.net/DTD/sodipodi-0.dtd"
   xmlns="http://www.w3.org/2000/svg"
   xmlns:svg="http://www.w3.org/2000/svg">
  <sodipodi:namedview
     id="namedview2230"
     pagecolor="#ffffff"
     bordercolor="#000000"
     borderopacity="0.25"
     inkscape:showpageshadow="2"
     inkscape:pageopacity="0.0"
     inkscape:pagecheckerboard="0"
     inkscape:deskcolor="#d1d1d1"
     inkscape:document-units="px"
     showgrid="false"
     inkscape:zoom="1.431186"
     inkscape:cx="-76.509972"
     inkscape:cy="134.85319"
     inkscape:window-width="1360"
     inkscape:window-height="705"
     inkscape:window-x="-8"
     inkscape:window-y="-8"
     inkscape:window-maximized="1"
     inkscape:current-layer="layer1" />
  <defs
     id="defs2225">
    <clipPath
       clipPathUnits="userSpaceOnUse"
       id="clipPath3406">
      <g
         id="g3410"
         transform="matrix(2.8346458,0,0,-2.8346458,-272.20669,320.17108)">
        <path
           d="M -156.21261,-124.3407 H 126.00961 V 157.88152 H -156.21261 Z"
           id="path3408"
           style="stroke-width:0.352778" />
      </g>
    </clipPath>
    <clipPath
       clipPathUnits="userSpaceOnUse"
       id="clipPath3412">
      <g
         id="g3416"
         transform="matrix(2.8346458,0,0,-2.8346458,-190.32109,247.56248)">
        <path
           d="M -156.21261,-124.3407 H 126.00961 V 157.88152 H -156.21261 Z"
           id="path3414"
           style="stroke-width:0.352778" />
      </g>
    </clipPath>
    <clipPath
       clipPathUnits="userSpaceOnUse"
       id="clipPath3418">
      <g
         id="g3422"
         transform="matrix(2.8346458,0,0,-2.8346458,-200.54339,209.37568)">
        <path
           d="M -156.21261,-124.3407 H 126.00961 V 157.88152 H -156.21261 Z"
           id="path3420"
           style="stroke-width:0.352778" />
      </g>
    </clipPath>
    <clipPath
       clipPathUnits="userSpaceOnUse"
       id="clipPath3424">
      <g
         id="g3428">
        <path
           d="M -156.21261,-124.3407 H 126.00961 V 157.88152 H -156.21261 Z"
           id="path3426"
           style="stroke-width:0.352778" />
      </g>
    </clipPath>
    <clipPath
       clipPathUnits="userSpaceOnUse"
       id="clipPath3430">
      <g
         id="g3434"
         transform="matrix(2.8346458,0,0,-2.8346458,-277.10039,273.65498)">
        <path
           d="M -156.21261,-124.3407 H 126.00961 V 157.88152 H -156.21261 Z"
           id="path3432"
           style="stroke-width:0.352778" />
      </g>
    </clipPath>
    <clipPath
       clipPathUnits="userSpaceOnUse"
       id="clipPath3436">
      <g
         id="g3440"
         transform="matrix(2.8346458,0,0,-2.8346458,-79.749192,272.38298)">
        <path
           d="M -156.21261,-124.3407 H 126.00961 V 157.88152 H -156.21261 Z"
           id="path3438"
           style="stroke-width:0.352778" />
      </g>
    </clipPath>
    <clipPath
       clipPathUnits="userSpaceOnUse"
       id="clipPath3442">
      <g
         id="g3446"
         transform="matrix(2.8346458,0,0,-2.8346458,-97.387191,208.44488)">
        <path
           d="M -156.21261,-124.3407 H 126.00961 V 157.88152 H -156.21261 Z"
           id="path3444"
           style="stroke-width:0.352778" />
      </g>
    </clipPath>
    <clipPath
       clipPathUnits="userSpaceOnUse"
       id="clipPath3448">
      <g
         id="g3452"
         transform="matrix(2.8346458,0,0,-2.8346458,-270.30299,261.47748)">
        <path
           d="M -156.21261,-124.3407 H 126.00961 V 157.88152 H -156.21261 Z"
           id="path3450"
           style="stroke-width:0.352778" />
      </g>
    </clipPath>
    <clipPath
       clipPathUnits="userSpaceOnUse"
       id="clipPath3454">
      <g
         id="g3458"
         transform="matrix(2.8346458,0,0,-2.8346458,-165.95959,226.24338)">
        <path
           d="M -156.21261,-124.3407 H 126.00961 V 157.88152 H -156.21261 Z"
           id="path3456"
           style="stroke-width:0.352778" />
      </g>
    </clipPath>
    <clipPath
       clipPathUnits="userSpaceOnUse"
       id="clipPath3460">
      <g
         id="g3464"
         transform="matrix(2.8346458,0,0,-2.8346458,-207.64409,255.61838)">
        <path
           d="M -156.21261,-124.3407 H 126.00961 V 157.88152 H -156.21261 Z"
           id="path3462"
           style="stroke-width:0.352778" />
      </g>
    </clipPath>
    <clipPath
       clipPathUnits="userSpaceOnUse"
       id="clipPath3466">
      <g
         id="g3470"
         transform="matrix(2.8346458,0,0,-2.8346458,-171.42869,247.23138)">
        <path
           d="M -156.21261,-124.3407 H 126.00961 V 157.88152 H -156.21261 Z"
           id="path3468"
           style="stroke-width:0.352778" />
      </g>
    </clipPath>
    <clipPath
       clipPathUnits="userSpaceOnUse"
       id="clipPath3472">
      <g
         id="g3476"
         transform="matrix(2.8346458,0,0,-2.8346458,-222.44579,269.09048)">
        <path
           d="M -156.21261,-124.3407 H 126.00961 V 157.88152 H -156.21261 Z"
           id="path3474"
           style="stroke-width:0.352778" />
      </g>
    </clipPath>
    <clipPath
       clipPathUnits="userSpaceOnUse"
       id="clipPath3478">
      <g
         id="g3482"
         transform="matrix(2.8346458,0,0,-2.8346458,-188.82869,300.90527)">
        <path
           d="M -156.21261,-124.3407 H 126.00961 V 157.88152 H -156.21261 Z"
           id="path3480"
           style="stroke-width:0.352778" />
      </g>
    </clipPath>
    <clipPath
       clipPathUnits="userSpaceOnUse"
       id="clipPath3484">
      <g
         id="g3488"
         transform="matrix(2.8346458,0,0,-2.8346458,-148.75969,269.88658)">
        <path
           d="M -156.21261,-124.3407 H 126.00961 V 157.88152 H -156.21261 Z"
           id="path3486"
           style="stroke-width:0.352778" />
      </g>
    </clipPath>
    <clipPath
       clipPathUnits="userSpaceOnUse"
       id="clipPath3490">
      <g
         id="g3494"
         transform="matrix(2.8346458,0,0,-2.8346458,-189.38509,238.59388)">
        <path
           d="M -156.21261,-124.3407 H 126.00961 V 157.88152 H -156.21261 Z"
           id="path3492"
           style="stroke-width:0.352778" />
      </g>
    </clipPath>
    <clipPath
       clipPathUnits="userSpaceOnUse"
       id="clipPath3496">
      <g
         id="g3500"
         transform="matrix(2.8346458,0,0,-2.8346458,-190.46339,279.77048)">
        <path
           d="M -156.21261,-124.3407 H 126.00961 V 157.88152 H -156.21261 Z"
           id="path3498"
           style="stroke-width:0.352778" />
      </g>
    </clipPath>
    <clipPath
       clipPathUnits="userSpaceOnUse"
       id="clipPath3502">
      <g
         id="g3506"
         transform="matrix(2.8346458,0,0,-2.8346458,-207.66809,307.77699)">
        <path
           d="M -156.21261,-124.3407 H 126.00961 V 157.88152 H -156.21261 Z"
           id="path3504"
           style="stroke-width:0.352778" />
      </g>
    </clipPath>
    <clipPath
       clipPathUnits="userSpaceOnUse"
       id="clipPath3508">
      <g
         id="g3512"
         transform="matrix(2.8346458,0,0,-2.8346458,-152.20889,305.74129)">
        <path
           d="M -156.21261,-124.3407 H 126.00961 V 157.88152 H -156.21261 Z"
           id="path3510"
           style="stroke-width:0.352778" />
      </g>
    </clipPath>
    <clipPath
       clipPathUnits="userSpaceOnUse"
       id="clipPath3514">
      <g
         id="g3518"
         transform="matrix(2.8346458,0,0,-2.8346458,-130.56669,289.01348)">
        <path
           d="M -156.21261,-124.3407 H 126.00961 V 157.88152 H -156.21261 Z"
           id="path3516"
           style="stroke-width:0.352778" />
      </g>
    </clipPath>
    <clipPath
       clipPathUnits="userSpaceOnUse"
       id="clipPath3520">
      <g
         id="g3524"
         transform="matrix(2.8346458,0,0,-2.8346458,-128.07229,250.89658)">
        <path
           d="M -156.21261,-124.3407 H 126.00961 V 157.88152 H -156.21261 Z"
           id="path3522"
           style="stroke-width:0.352778" />
      </g>
    </clipPath>
    <clipPath
       clipPathUnits="userSpaceOnUse"
       id="clipPath3526">
      <g
         id="g3530"
         transform="matrix(2.8346458,0,0,-2.8346458,-212.81639,293.01846)">
        <path
           d="M -156.21261,-124.3407 H 126.00961 V 157.88152 H -156.21261 Z"
           id="path3528"
           style="stroke-width:0.352778" />
      </g>
    </clipPath>
    <clipPath
       clipPathUnits="userSpaceOnUse"
       id="clipPath3532">
      <g
         id="g3536"
         transform="matrix(2.8346458,0,0,-2.8346458,-217.11399,290.29258)">
        <path
           d="M -156.21261,-124.3407 H 126.00961 V 157.88152 H -156.21261 Z"
           id="path3534"
           style="stroke-width:0.352778" />
      </g>
    </clipPath>
    <clipPath
       clipPathUnits="userSpaceOnUse"
       id="clipPath3538">
      <g
         id="g3542"
         transform="matrix(2.8346458,0,0,-2.8346458,-212.08189,289.13897)">
        <path
           d="M -156.21261,-124.3407 H 126.00961 V 157.88152 H -156.21261 Z"
           id="path3540"
           style="stroke-width:0.352778" />
      </g>
    </clipPath>
    <clipPath
       clipPathUnits="userSpaceOnUse"
       id="clipPath3544">
      <g
         id="g3548"
         transform="matrix(2.8346458,0,0,-2.8346458,-206.00179,287.35708)">
        <path
           d="M -156.21261,-124.3407 H 126.00961 V 157.88152 H -156.21261 Z"
           id="path3546"
           style="stroke-width:0.352778" />
      </g>
    </clipPath>
    <clipPath
       clipPathUnits="userSpaceOnUse"
       id="clipPath3550">
      <g
         id="g3554"
         transform="matrix(2.8346458,0,0,-2.8346458,-219.63029,284.21218)">
        <path
           d="M -156.21261,-124.3407 H 126.00961 V 157.88152 H -156.21261 Z"
           id="path3552"
           style="stroke-width:0.352778" />
      </g>
    </clipPath>
    <clipPath
       clipPathUnits="userSpaceOnUse"
       id="clipPath3556">
      <g
         id="g3560"
         transform="matrix(2.8346458,0,0,-2.8346458,-213.34049,281.90518)">
        <path
           d="M -156.21261,-124.3407 H 126.00961 V 157.88152 H -156.21261 Z"
           id="path3558"
           style="stroke-width:0.352778" />
      </g>
    </clipPath>
    <clipPath
       clipPathUnits="userSpaceOnUse"
       id="clipPath3562">
      <g
         id="g3566"
         transform="matrix(2.8346458,0,0,-2.8346458,-216.69509,280.64738)">
        <path
           d="M -156.21261,-124.3407 H 126.00961 V 157.88152 H -156.21261 Z"
           id="path3564"
           style="stroke-width:0.352778" />
      </g>
    </clipPath>
    <clipPath
       clipPathUnits="userSpaceOnUse"
       id="clipPath3568">
      <g
         id="g3572"
         transform="matrix(2.8346458,0,0,-2.8346458,-208.51739,278.76028)">
        <path
           d="M -156.21261,-124.3407 H 126.00961 V 157.88152 H -156.21261 Z"
           id="path3570"
           style="stroke-width:0.352778" />
      </g>
    </clipPath>
    <clipPath
       clipPathUnits="userSpaceOnUse"
       id="clipPath3574">
      <g
         id="g3578"
         transform="matrix(2.8346458,0,0,-2.8346458,-185.13839,317.34108)">
        <path
           d="M -156.21261,-124.3407 H 126.00961 V 157.88152 H -156.21261 Z"
           id="path3576"
           style="stroke-width:0.352778" />
      </g>
    </clipPath>
    <clipPath
       clipPathUnits="userSpaceOnUse"
       id="clipPath3580">
      <g
         id="g3584"
         transform="matrix(2.8346458,0,0,-2.8346458,-193.84079,319.22757)">
        <path
           d="M -156.21261,-124.3407 H 126.00961 V 157.88152 H -156.21261 Z"
           id="path3582"
           style="stroke-width:0.352778" />
      </g>
    </clipPath>
    <clipPath
       clipPathUnits="userSpaceOnUse"
       id="clipPath3586">
      <g
         id="g3590"
         transform="matrix(2.8346458,0,0,-2.8346458,-186.29249,314.19536)">
        <path
           d="M -156.21261,-124.3407 H 126.00961 V 157.88152 H -156.21261 Z"
           id="path3588"
           style="stroke-width:0.352778" />
      </g>
    </clipPath>
    <clipPath
       clipPathUnits="userSpaceOnUse"
       id="clipPath3592">
      <g
         id="g3596"
         transform="matrix(2.8346458,0,0,-2.8346458,-208.09869,238.71218)">
        <path
           d="M -156.21261,-124.3407 H 126.00961 V 157.88152 H -156.21261 Z"
           id="path3594"
           style="stroke-width:0.352778" />
      </g>
    </clipPath>
    <clipPath
       clipPathUnits="userSpaceOnUse"
       id="clipPath3598">
      <g
         id="g3602"
         transform="matrix(2.8346458,0,0,-2.8346458,-210.50969,235.35708)">
        <path
           d="M -156.21261,-124.3407 H 126.00961 V 157.88152 H -156.21261 Z"
           id="path3600"
           style="stroke-width:0.352778" />
      </g>
    </clipPath>
    <clipPath
       clipPathUnits="userSpaceOnUse"
       id="clipPath3604">
      <g
         id="g3608"
         transform="matrix(2.8346458,0,0,-2.8346458,-202.75159,239.34148)">
        <path
           d="M -156.21261,-124.3407 H 126.00961 V 157.88152 H -156.21261 Z"
           id="path3606"
           style="stroke-width:0.352778" />
      </g>
    </clipPath>
    <clipPath
       clipPathUnits="userSpaceOnUse"
       id="clipPath3610">
      <g
         id="g3614"
         transform="matrix(2.8346458,0,0,-2.8346458,-204.32439,233.67978)">
        <path
           d="M -156.21261,-124.3407 H 126.00961 V 157.88152 H -156.21261 Z"
           id="path3612"
           style="stroke-width:0.352778" />
      </g>
    </clipPath>
    <clipPath
       clipPathUnits="userSpaceOnUse"
       id="clipPath3616">
      <g
         id="g3620"
         transform="matrix(2.8346458,0,0,-2.8346458,-208.93689,231.58328)">
        <path
           d="M -156.21261,-124.3407 H 126.00961 V 157.88152 H -156.21261 Z"
           id="path3618"
           style="stroke-width:0.352778" />
      </g>
    </clipPath>
    <clipPath
       clipPathUnits="userSpaceOnUse"
       id="clipPath3622">
      <g
         id="g3626"
         transform="matrix(2.8346458,0,0,-2.8346458,-180.21159,229.48598)">
        <path
           d="M -156.21261,-124.3407 H 126.00961 V 157.88152 H -156.21261 Z"
           id="path3624"
           style="stroke-width:0.352778" />
      </g>
    </clipPath>
    <clipPath
       clipPathUnits="userSpaceOnUse"
       id="clipPath3628">
      <g
         id="g3632"
         transform="matrix(2.8346458,0,0,-2.8346458,-176.96069,229.69578)">
        <path
           d="M -156.21261,-124.3407 H 126.00961 V 157.88152 H -156.21261 Z"
           id="path3630"
           style="stroke-width:0.352778" />
      </g>
    </clipPath>
    <clipPath
       clipPathUnits="userSpaceOnUse"
       id="clipPath3634">
      <g
         id="g3638"
         transform="matrix(2.8346458,0,0,-2.8346458,-177.69519,226.76058)">
        <path
           d="M -156.21261,-124.3407 H 126.00961 V 157.88152 H -156.21261 Z"
           id="path3636"
           style="stroke-width:0.352778" />
      </g>
    </clipPath>
    <clipPath
       clipPathUnits="userSpaceOnUse"
       id="clipPath3640">
      <g
         id="g3644"
         transform="matrix(2.8346458,0,0,-2.8346458,-185.62529,253.69248)">
        <path
           d="M -156.21261,-124.3407 H 126.00961 V 157.88152 H -156.21261 Z"
           id="path3642"
           style="stroke-width:0.352778" />
      </g>
    </clipPath>
    <clipPath
       clipPathUnits="userSpaceOnUse"
       id="clipPath3646">
      <g
         id="g3650"
         transform="matrix(2.8346458,0,0,-2.8346458,-192.33539,258.09528)">
        <path
           d="M -156.21261,-124.3407 H 126.00961 V 157.88152 H -156.21261 Z"
           id="path3648"
           style="stroke-width:0.352778" />
      </g>
    </clipPath>
    <clipPath
       clipPathUnits="userSpaceOnUse"
       id="clipPath3652">
      <g
         id="g3656"
         transform="matrix(2.8346458,0,0,-2.8346458,-188.56049,255.36978)">
        <path
           d="M -156.21261,-124.3407 H 126.00961 V 157.88152 H -156.21261 Z"
           id="path3654"
           style="stroke-width:0.352778" />
      </g>
    </clipPath>
    <clipPath
       clipPathUnits="userSpaceOnUse"
       id="clipPath3658">
      <g
         id="g3662"
         transform="matrix(2.8346458,0,0,-2.8346458,-193.38349,255.26528)">
        <path
           d="M -156.21261,-124.3407 H 126.00961 V 157.88152 H -156.21261 Z"
           id="path3660"
           style="stroke-width:0.352778" />
      </g>
    </clipPath>
    <clipPath
       clipPathUnits="userSpaceOnUse"
       id="clipPath3664">
      <g
         id="g3668"
         transform="matrix(2.8346458,0,0,-2.8346458,-189.81969,250.54718)">
        <path
           d="M -156.21261,-124.3407 H 126.00961 V 157.88152 H -156.21261 Z"
           id="path3666"
           style="stroke-width:0.352778" />
      </g>
    </clipPath>
    <clipPath
       clipPathUnits="userSpaceOnUse"
       id="clipPath3670">
      <g
         id="g3674"
         transform="matrix(2.8346458,0,0,-2.8346458,-165.74369,267.43758)">
        <path
           d="M -156.21261,-124.3407 H 126.00961 V 157.88152 H -156.21261 Z"
           id="path3672"
           style="stroke-width:0.352778" />
      </g>
    </clipPath>
    <clipPath
       clipPathUnits="userSpaceOnUse"
       id="clipPath3676">
      <g
         id="g3680"
         transform="matrix(2.8346458,0,0,-2.8346458,-168.15509,265.55078)">
        <path
           d="M -156.21261,-124.3407 H 126.00961 V 157.88152 H -156.21261 Z"
           id="path3678"
           style="stroke-width:0.352778" />
      </g>
    </clipPath>
    <clipPath
       clipPathUnits="userSpaceOnUse"
       id="clipPath3682">
      <g
         id="g3686"
         transform="matrix(2.8346458,0,0,-2.8346458,-165.42899,264.29268)">
        <path
           d="M -156.21261,-124.3407 H 126.00961 V 157.88152 H -156.21261 Z"
           id="path3684"
           style="stroke-width:0.352778" />
      </g>
    </clipPath>
    <clipPath
       clipPathUnits="userSpaceOnUse"
       id="clipPath3688">
      <g
         id="g3692"
         transform="matrix(2.8346458,0,0,-2.8346458,-169.30809,298.67968)">
        <path
           d="M -156.21261,-124.3407 H 126.00961 V 157.88152 H -156.21261 Z"
           id="path3690"
           style="stroke-width:0.352778" />
      </g>
    </clipPath>
    <clipPath
       clipPathUnits="userSpaceOnUse"
       id="clipPath3694">
      <g
         id="g3698"
         transform="matrix(2.8346458,0,0,-2.8346458,-159.76799,294.90549)">
        <path
           d="M -156.21261,-124.3407 H 126.00961 V 157.88152 H -156.21261 Z"
           id="path3696"
           style="stroke-width:0.352778" />
      </g>
    </clipPath>
    <clipPath
       clipPathUnits="userSpaceOnUse"
       id="clipPath3700">
      <g
         id="g3704"
         transform="matrix(2.8346458,0,0,-2.8346458,-164.69549,294.69547)">
        <path
           d="M -156.21261,-124.3407 H 126.00961 V 157.88152 H -156.21261 Z"
           id="path3702"
           style="stroke-width:0.352778" />
      </g>
    </clipPath>
    <clipPath
       clipPathUnits="userSpaceOnUse"
       id="clipPath3706">
      <g
         id="g3710"
         transform="matrix(2.8346458,0,0,-2.8346458,-169.83249,289.03437)">
        <path
           d="M -156.21261,-124.3407 H 126.00961 V 157.88152 H -156.21261 Z"
           id="path3708"
           style="stroke-width:0.352778" />
      </g>
    </clipPath>
    <clipPath
       clipPathUnits="userSpaceOnUse"
       id="clipPath3712">
      <g
         id="g3716"
         transform="matrix(2.8346458,0,0,-2.8346458,-160.92099,286.72779)">
        <path
           d="M -156.21261,-124.3407 H 126.00961 V 157.88152 H -156.21261 Z"
           id="path3714"
           style="stroke-width:0.352778" />
      </g>
    </clipPath>
    <clipPath
       clipPathUnits="userSpaceOnUse"
       id="clipPath3718">
      <g
         id="g3722"
         transform="matrix(2.8346458,0,0,-2.8346458,-154.01859,320.17108)">
        <path
           d="M -156.21261,-124.3407 H 126.00961 V 157.88152 H -156.21261 Z"
           id="path3720"
           style="stroke-width:0.352778" />
      </g>
    </clipPath>
    <clipPath
       clipPathUnits="userSpaceOnUse"
       id="clipPath3724">
      <g
         id="g3728"
         transform="matrix(2.8346458,0,0,-2.8346458,-155.25999,317.34108)">
        <path
           d="M -156.21261,-124.3407 H 126.00961 V 157.88152 H -156.21261 Z"
           id="path3726"
           style="stroke-width:0.352778" />
      </g>
    </clipPath>
    <clipPath
       clipPathUnits="userSpaceOnUse"
       id="clipPath3730">
      <g
         id="g3734"
         transform="matrix(2.8346458,0,0,-2.8346458,-136.07429,301.61498)">
        <path
           d="M -156.21261,-124.3407 H 126.00961 V 157.88152 H -156.21261 Z"
           id="path3732"
           style="stroke-width:0.352778" />
      </g>
    </clipPath>
    <clipPath
       clipPathUnits="userSpaceOnUse"
       id="clipPath3736">
      <g
         id="g3740"
         transform="matrix(2.8346458,0,0,-2.8346458,-139.95339,300.77658)">
        <path
           d="M -156.21261,-124.3407 H 126.00961 V 157.88152 H -156.21261 Z"
           id="path3738"
           style="stroke-width:0.352778" />
      </g>
    </clipPath>
    <clipPath
       clipPathUnits="userSpaceOnUse"
       id="clipPath3742">
      <g
         id="g3746"
         transform="matrix(2.8346458,0,0,-2.8346458,-136.80839,297.42189)">
        <path
           d="M -156.21261,-124.3407 H 126.00961 V 157.88152 H -156.21261 Z"
           id="path3744"
           style="stroke-width:0.352778" />
      </g>
    </clipPath>
    <clipPath
       clipPathUnits="userSpaceOnUse"
       id="clipPath3748">
      <g
         id="g3752"
         transform="matrix(2.8346458,0,0,-2.8346458,-133.03419,270.58318)">
        <path
           d="M -156.21261,-124.3407 H 126.00961 V 157.88152 H -156.21261 Z"
           id="path3750"
           style="stroke-width:0.352778" />
      </g>
    </clipPath>
    <clipPath
       clipPathUnits="userSpaceOnUse"
       id="clipPath3754">
      <g
         id="g3758"
         transform="matrix(2.8346458,0,0,-2.8346458,-126.11509,271.63128)">
        <path
           d="M -156.21261,-124.3407 H 126.00961 V 157.88152 H -156.21261 Z"
           id="path3756"
           style="stroke-width:0.352778" />
      </g>
    </clipPath>
    <clipPath
       clipPathUnits="userSpaceOnUse"
       id="clipPath3760">
      <g
         id="g3764"
         transform="matrix(2.8346458,0,0,-2.8346458,-129.25999,273.20378)">
        <path
           d="M -156.21261,-124.3407 H 126.00961 V 157.88152 H -156.21261 Z"
           id="path3762"
           style="stroke-width:0.352778" />
      </g>
    </clipPath>
    <clipPath
       clipPathUnits="userSpaceOnUse"
       id="clipPath3766">
      <g
         id="g3770"
         transform="matrix(2.8346458,0,0,-2.8346458,-129.67949,267.64738)">
        <path
           d="M -156.21261,-124.3407 H 126.00961 V 157.88152 H -156.21261 Z"
           id="path3768"
           style="stroke-width:0.352778" />
      </g>
    </clipPath>
    <clipPath
       clipPathUnits="userSpaceOnUse"
       id="clipPath3772">
      <g
         id="g3776"
         transform="matrix(2.8346458,0,0,-2.8346458,-146.97779,246.26128)">
        <path
           d="M -156.21261,-124.3407 H 126.00961 V 157.88152 H -156.21261 Z"
           id="path3774"
           style="stroke-width:0.352778" />
      </g>
    </clipPath>
    <clipPath
       clipPathUnits="userSpaceOnUse"
       id="clipPath3778">
      <g
         id="g3782"
         transform="matrix(2.8346458,0,0,-2.8346458,-143.30809,240.80968)">
        <path
           d="M -156.21261,-124.3407 H 126.00961 V 157.88152 H -156.21261 Z"
           id="path3780"
           style="stroke-width:0.352778" />
      </g>
    </clipPath>
    <clipPath
       clipPathUnits="userSpaceOnUse"
       id="clipPath3784">
      <g
         id="g3788"
         transform="matrix(2.8346458,0,0,-2.8346458,-151.27569,245.42258)">
        <path
           d="M -156.21261,-124.3407 H 126.00961 V 157.88152 H -156.21261 Z"
           id="path3786"
           style="stroke-width:0.352778" />
      </g>
    </clipPath>
    <clipPath
       clipPathUnits="userSpaceOnUse"
       id="clipPath3790">
      <g
         id="g3794"
         transform="matrix(2.8346458,0,0,-2.8346458,-154.73559,240.80968)">
        <path
           d="M -156.21261,-124.3407 H 126.00961 V 157.88152 H -156.21261 Z"
           id="path3792"
           style="stroke-width:0.352778" />
      </g>
    </clipPath>
    <clipPath
       clipPathUnits="userSpaceOnUse"
       id="clipPath3796">
      <g
         id="g3800"
         transform="matrix(2.8346458,0,0,-2.8346458,-147.18719,238.50338)">
        <path
           d="M -156.21261,-124.3407 H 126.00961 V 157.88152 H -156.21261 Z"
           id="path3798"
           style="stroke-width:0.352778" />
      </g>
    </clipPath>
    <clipPath
       clipPathUnits="userSpaceOnUse"
       id="clipPath3802">
      <g
         id="g3806"
         transform="matrix(2.8346458,0,0,-2.8346458,-147.71159,236.40628)">
        <path
           d="M -156.21261,-124.3407 H 126.00961 V 157.88152 H -156.21261 Z"
           id="path3804"
           style="stroke-width:0.352778" />
      </g>
    </clipPath>
    <clipPath
       clipPathUnits="userSpaceOnUse"
       id="clipPath3808">
      <g
         id="g3812"
         transform="matrix(2.8346458,0,0,-2.8346458,-176.96069,227.80908)">
        <path
           d="M -156.21261,-124.3407 H 126.00961 V 157.88152 H -156.21261 Z"
           id="path3810"
           style="stroke-width:0.352778" />
      </g>
    </clipPath>
    <clipPath
       clipPathUnits="userSpaceOnUse"
       id="clipPath3814">
      <g
         id="g3818"
         transform="matrix(2.8346458,0,0,-2.8346458,-165.74369,266.17978)">
        <path
           d="M -156.21261,-124.3407 H 126.00961 V 157.88152 H -156.21261 Z"
           id="path3816"
           style="stroke-width:0.352778" />
      </g>
    </clipPath>
    <clipPath
       clipPathUnits="userSpaceOnUse"
       id="clipPath3820">
      <g
         id="g3824"
         transform="matrix(2.8346458,0,0,-2.8346458,-155.25999,319.43728)">
        <path
           d="M -156.21261,-124.3407 H 126.00961 V 157.88152 H -156.21261 Z"
           id="path3822"
           style="stroke-width:0.352778" />
      </g>
    </clipPath>
    <clipPath
       clipPathUnits="userSpaceOnUse"
       id="clipPath3826">
      <g
         id="g3830"
         transform="matrix(2.8346458,0,0,-2.8346458,-186.29249,315.87347)">
        <path
           d="M -156.21261,-124.3407 H 126.00961 V 157.88152 H -156.21261 Z"
           id="path3828"
           style="stroke-width:0.352778" />
      </g>
    </clipPath>
    <clipPath
       clipPathUnits="userSpaceOnUse"
       id="clipPath3832">
      <g
         id="g3836"
         transform="matrix(2.8346458,0,0,-2.8346458,-196.52909,255.26528)">
        <path
           d="M -156.21261,-124.3407 H 126.00961 V 157.88152 H -156.21261 Z"
           id="path3834"
           style="stroke-width:0.352778" />
      </g>
    </clipPath>
    <clipPath
       clipPathUnits="userSpaceOnUse"
       id="clipPath3838">
      <g
         id="g3842"
         transform="matrix(2.8346458,0,0,-2.8346458,-210.50969,238.08318)">
        <path
           d="M -156.21261,-124.3407 H 126.00961 V 157.88152 H -156.21261 Z"
           id="path3840"
           style="stroke-width:0.352778" />
      </g>
    </clipPath>
    <clipPath
       clipPathUnits="userSpaceOnUse"
       id="clipPath3844">
      <g
         id="g3848"
         transform="matrix(2.8346458,0,0,-2.8346458,-219.63029,287.14729)">
        <path
           d="M -156.21261,-124.3407 H 126.00961 V 157.88152 H -156.21261 Z"
           id="path3846"
           style="stroke-width:0.352778" />
      </g>
    </clipPath>
    <clipPath
       clipPathUnits="userSpaceOnUse"
       id="clipPath3850">
      <g
         id="g3854"
         transform="matrix(2.8346458,0,0,-2.8346458,-139.95339,302.45398)">
        <path
           d="M -156.21261,-124.3407 H 126.00961 V 157.88152 H -156.21261 Z"
           id="path3852"
           style="stroke-width:0.352778" />
      </g>
    </clipPath>
    <clipPath
       clipPathUnits="userSpaceOnUse"
       id="clipPath3856">
      <g
         id="g3860"
         transform="matrix(2.8346458,0,0,-2.8346458,-169.83249,293.85706)">
        <path
           d="M -156.21261,-124.3407 H 126.00961 V 157.88152 H -156.21261 Z"
           id="path3858"
           style="stroke-width:0.352778" />
      </g>
    </clipPath>
    <clipPath
       clipPathUnits="userSpaceOnUse"
       id="clipPath3862">
      <g
         id="g3866"
         transform="matrix(2.8346458,0,0,-2.8346458,-127.16349,267.64738)">
        <path
           d="M -156.21261,-124.3407 H 126.00961 V 157.88152 H -156.21261 Z"
           id="path3864"
           style="stroke-width:0.352778" />
      </g>
    </clipPath>
    <clipPath
       clipPathUnits="userSpaceOnUse"
       id="clipPath3868">
      <g
         id="g3872"
         transform="matrix(2.8346458,0,0,-2.8346458,-143.30809,238.71318)">
        <path
           d="M -156.21261,-124.3407 H 126.00961 V 157.88152 H -156.21261 Z"
           id="path3870"
           style="stroke-width:0.352778" />
      </g>
    </clipPath>
    <clipPath
       clipPathUnits="userSpaceOnUse"
       id="clipPath3874">
      <g
         id="g3878"
         transform="matrix(2.8346458,0,0,-2.8346458,-232.76789,308.55887)">
        <path
           d="M -156.21261,-124.3407 H 126.00961 V 157.88152 H -156.21261 Z"
           id="path3876"
           style="stroke-width:0.352778" />
      </g>
    </clipPath>
  </defs>
  <g
     inkscape:label="Camada 1"
     inkscape:groupmode="layer"
     id="layer1">
    <g
       id="g8023"
       inkscape:export-filename="logo.png"
       inkscape:export-xdpi="96"
       inkscape:export-ydpi="96">
      <g
         id="g7180"
         inkscape:export-filename="logo.png"
         inkscape:export-xdpi="96"
         inkscape:export-ydpi="96">
        <g
           id="g1070"
           transform="matrix(0.20677836,0,0,-0.20733788,41.939665,36.371713)"
           style="fill:#ffffff"
           clip-path="url(#clipPath3874)">
          <path
             d="m 0,0 c 1.21,2.092 1.093,4.877 2.084,7.101 0.983,2.204 3.136,3.977 3.889,6.296 0.744,2.292 0.046,4.99 0.552,7.379 0.498,2.353 2.231,4.537 2.485,6.971 0.248,2.387 -0.996,4.881 -0.996,7.334 0,2.452 1.244,4.946 0.996,7.334 -0.254,2.434 -1.988,4.618 -2.486,6.971 -0.4,1.893 -0.055,3.977 -0.261,5.902 L 3.566,54.371 C 3.585,53.881 3.579,53.358 3.571,52.817 3.551,51.593 3.527,50.206 3.822,48.814 4.112,47.445 4.69,46.199 5.199,45.1 5.699,44.023 6.172,43.005 6.262,42.128 6.35,41.289 6.102,40.213 5.84,39.073 5.565,37.874 5.252,36.514 5.252,35.081 5.252,33.647 5.565,32.288 5.84,31.088 6.102,29.949 6.35,28.872 6.262,28.034 6.172,27.156 5.699,26.139 5.199,25.06 4.69,23.962 4.113,22.716 3.823,21.349 3.527,19.955 3.551,18.568 3.571,17.344 3.591,16.17 3.608,15.061 3.346,14.25 3.076,13.419 2.404,12.525 1.691,11.578 0.961,10.607 0.134,9.508 -0.437,8.226 -1.015,6.93 -1.283,5.572 -1.519,4.373 -1.746,3.218 -1.961,2.126 -2.391,1.383 -2.826,0.631 -3.668,-0.102 -4.56,-0.877 c -0.918,-0.799 -1.96,-1.705 -2.79,-2.845 -0.833,-1.144 -1.375,-2.417 -1.854,-3.539 -0.463,-1.084 -0.9,-2.109 -1.478,-2.75 -0.525,-0.584 -1.381,-1.085 -2.305,-1.601 h 4.55 c 1.46,1.798 1.954,4.386 3.321,6.265 C -3.692,-3.39 -1.217,-2.104 0,0"
             style="fill:#ffffff;fill-opacity:1;fill-rule:nonzero;stroke:none"
             id="path1072" />
        </g>
        <g
           id="g1074"
           transform="matrix(0.20677836,0,0,-0.20733788,23.441314,21.890055)"
           style="fill:#ffffff"
           clip-path="url(#clipPath3868)">
          <path
             d="m 0,0 c 0.579,0 1.048,-0.469 1.048,-1.048 0,-0.579 -0.469,-1.048 -1.048,-1.048 -0.579,0 -1.048,0.469 -1.048,1.048 C -1.048,-0.469 -0.579,0 0,0 m 3.67,-5.242 c 0.636,0 1.153,-0.516 1.153,-1.153 0,-0.637 -0.517,-1.153 -1.153,-1.153 -0.638,0 -1.154,0.516 -1.154,1.153 0,0.637 0.516,1.153 1.154,1.153 M 4.403,6.081 c 1.043,0 1.888,-0.845 1.888,-1.887 0,-1.042 -0.845,-1.887 -1.888,-1.887 -1.042,0 -1.887,0.845 -1.887,1.887 0,1.042 0.845,1.887 1.887,1.887 M 7.968,-4.613 c 0.579,0 1.048,-0.469 1.048,-1.048 0,-0.579 -0.469,-1.048 -1.048,-1.048 -0.579,0 -1.049,0.469 -1.049,1.048 0,0.579 0.47,1.048 1.049,1.048 m 3.459,4.823 c 0.637,0 1.154,-0.516 1.154,-1.154 0,-0.636 -0.517,-1.152 -1.154,-1.152 -0.636,0 -1.153,0.516 -1.153,1.152 0,0.638 0.517,1.154 1.153,1.154 M 3.879,-2.096 c -0.637,0 -1.153,0.516 -1.153,1.152 0,0.638 0.516,1.154 1.153,1.154 0.637,0 1.153,-0.516 1.153,-1.154 0,-0.636 -0.516,-1.152 -1.153,-1.152"
             style="fill:#ffffff;fill-opacity:1;fill-rule:nonzero;stroke:none"
             id="path1076" />
        </g>
        <g
           id="g1078"
           transform="matrix(0.20677836,0,0,-0.20733788,20.10296,27.889211)"
           style="fill:#ffffff"
           clip-path="url(#clipPath3862)">
          <path
             d="M 0,0 C 0,0.695 0.563,1.258 1.258,1.258 1.953,1.258 2.516,0.695 2.516,0 2.516,-0.695 1.953,-1.258 1.258,-1.258 0.563,-1.258 0,-0.695 0,0 m -1.048,-5.661 c -0.464,0 -0.839,0.375 -0.839,0.838 0,0.464 0.375,0.839 0.839,0.839 0.462,0 0.838,-0.375 0.838,-0.839 0,-0.463 -0.376,-0.838 -0.838,-0.838 m 5.451,0.105 c 0,-0.637 -0.516,-1.154 -1.153,-1.154 -0.637,0 -1.154,0.517 -1.154,1.154 0,0.637 0.517,1.153 1.154,1.153 0.637,0 1.153,-0.516 1.153,-1.153 m 1.468,4.717 c 0.579,0 1.048,-0.469 1.048,-1.048 0,-0.579 -0.469,-1.049 -1.048,-1.049 -0.579,0 -1.049,0.47 -1.049,1.049 0,0.579 0.47,1.048 1.049,1.048"
             style="fill:#ffffff;fill-opacity:1;fill-rule:nonzero;stroke:none"
             id="path1080" />
        </g>
        <g
           id="g1082"
           transform="matrix(0.20677836,0,0,-0.20733788,28.925986,33.323472)"
           style="fill:#ffffff"
           clip-path="url(#clipPath3856)">
          <path
             d="m 0,0 c -1.331,0 -2.411,1.079 -2.411,2.412 0,1.332 1.08,2.411 2.411,2.411 1.332,0 2.411,-1.079 2.411,-2.411 C 2.411,1.079 1.332,0 0,0 m -0.524,-6.5 c -0.464,0 -0.839,0.375 -0.839,0.839 0,0.463 0.375,0.838 0.839,0.838 0.463,0 0.838,-0.375 0.838,-0.838 0,-0.464 -0.375,-0.839 -0.838,-0.839 m -4.613,2.726 c -0.811,0 -1.468,0.658 -1.468,1.468 0,0.81 0.657,1.468 1.468,1.468 0.811,0 1.468,-0.658 1.468,-1.468 0,-0.81 -0.657,-1.468 -1.468,-1.468 m -3.774,7.548 c -0.927,0 -1.678,0.751 -1.678,1.678 0,0.926 0.751,1.677 1.678,1.677 0.926,0 1.677,-0.751 1.677,-1.677 0,-0.927 -0.751,-1.678 -1.677,-1.678 m -1.153,-7.129 c -0.638,0 -1.154,0.517 -1.154,1.153 0,0.637 0.516,1.154 1.154,1.154 0.636,0 1.153,-0.517 1.153,-1.154 0,-0.636 -0.517,-1.153 -1.153,-1.153"
             style="fill:#ffffff;fill-opacity:1;fill-rule:nonzero;stroke:none"
             id="path1084" />
        </g>
        <g
           id="g1086"
           transform="matrix(0.20677836,0,0,-0.20733788,22.747635,35.105938)"
           style="fill:#ffffff"
           clip-path="url(#clipPath3850)">
          <path
             d="m 0,0 c -0.463,0 -0.839,0.376 -0.839,0.839 0,0.463 0.376,0.838 0.839,0.838 0.463,0 0.838,-0.375 0.838,-0.838 C 0.838,0.376 0.463,0 0,0 m -3.145,2.936 c -0.579,0 -1.048,0.469 -1.048,1.048 0,0.578 0.469,1.048 1.048,1.048 0.579,0 1.048,-0.47 1.048,-1.048 0,-0.579 -0.469,-1.048 -1.048,-1.048 m -0.734,-3.565 c -0.405,0 -0.734,0.328 -0.734,0.734 0,0.405 0.329,0.734 0.734,0.734 0.405,0 0.734,-0.329 0.734,-0.734 0,-0.406 -0.329,-0.734 -0.734,-0.734"
             style="fill:#ffffff;fill-opacity:1;fill-rule:nonzero;stroke:none"
             id="path1088" />
        </g>
        <g
           id="g1090"
           transform="matrix(0.20677836,0,0,-0.20733788,39.223094,31.932281)"
           style="fill:#ffffff"
           clip-path="url(#clipPath3844)">
          <path
             d="m 0,0 c -0.811,0 -1.468,0.657 -1.468,1.467 0,0.811 0.657,1.468 1.468,1.468 0.811,0 1.468,-0.657 1.468,-1.468 C 1.468,0.657 0.811,0 0,0 m -2.516,-5.661 c -0.695,0 -1.258,0.563 -1.258,1.258 0,0.695 0.563,1.258 1.258,1.258 0.695,0 1.257,-0.563 1.257,-1.258 0,-0.695 -0.562,-1.258 -1.257,-1.258 M -6.29,-0.21 c -1.506,0 -2.726,1.22 -2.726,2.726 0,1.506 1.22,2.726 2.726,2.726 1.506,0 2.726,-1.22 2.726,-2.726 0,-1.506 -1.22,-2.726 -2.726,-2.726 m -0.524,-7.967 c -0.637,0 -1.153,0.516 -1.153,1.153 0,0.636 0.516,1.153 1.153,1.153 0.636,0 1.153,-0.517 1.153,-1.153 0,-0.637 -0.517,-1.153 -1.153,-1.153 m -2.622,6.185 c 0,0.521 0.423,0.944 0.945,0.944 0.52,0 0.943,-0.423 0.943,-0.944 0,-0.521 -0.423,-0.944 -0.943,-0.944 -0.522,0 -0.945,0.423 -0.945,0.944 m -1.677,7.863 c -0.694,0 -1.258,0.563 -1.258,1.258 0,0.694 0.564,1.258 1.258,1.258 0.695,0 1.259,-0.564 1.259,-1.258 0,-0.695 -0.564,-1.258 -1.259,-1.258 m -2.516,-9.016 c -0.81,0 -1.467,0.657 -1.467,1.467 0,0.811 0.657,1.468 1.467,1.468 0.811,0 1.468,-0.657 1.468,-1.468 0,-0.81 -0.657,-1.467 -1.468,-1.467 m 10.694,13 c 0.927,0 1.677,-0.751 1.677,-1.678 0,-0.926 -0.75,-1.677 -1.677,-1.677 -0.927,0 -1.678,0.751 -1.678,1.677 0,0.927 0.751,1.678 1.678,1.678"
             style="fill:#ffffff;fill-opacity:1;fill-rule:nonzero;stroke:none"
             id="path1092" />
        </g>
        <g
           id="g1094"
           transform="matrix(0.20677836,0,0,-0.20733788,37.337151,21.759432)"
           style="fill:#ffffff"
           clip-path="url(#clipPath3838)">
          <path
             d="m 0,0 c -0.753,0 -1.363,0.61 -1.363,1.363 0,0.753 0.61,1.363 1.363,1.363 0.752,0 1.363,-0.61 1.363,-1.363 C 1.363,0.61 0.752,0 0,0 m -2.411,-3.565 c -0.81,0 -1.468,0.658 -1.468,1.468 0,0.811 0.658,1.468 1.468,1.468 0.81,0 1.468,-0.657 1.468,-1.468 0,-0.81 -0.658,-1.468 -1.468,-1.468 M -4.508,6.5 c 0,0.81 0.658,1.468 1.468,1.468 0.81,0 1.467,-0.658 1.467,-1.468 0,-0.81 -0.657,-1.468 -1.467,-1.468 -0.81,0 -1.468,0.658 -1.468,1.468 M -6.185,1.049 c -0.927,0 -1.678,0.751 -1.678,1.677 0,0.926 0.751,1.677 1.678,1.677 0.925,0 1.677,-0.751 1.677,-1.677 0,-0.926 -0.752,-1.677 -1.677,-1.677 m -1.573,-4.614 c -0.637,0 -1.153,0.517 -1.153,1.154 0,0.637 0.516,1.153 1.153,1.153 0.636,0 1.153,-0.516 1.153,-1.153 0,-0.637 -0.517,-1.154 -1.153,-1.154"
             style="fill:#ffffff;fill-opacity:1;fill-rule:nonzero;stroke:none"
             id="path1096" />
        </g>
        <g
           id="g1098"
           transform="matrix(0.20677836,0,0,-0.20733788,34.446265,25.321933)"
           style="fill:#ffffff"
           clip-path="url(#clipPath3832)">
          <path
             d="m 0,0 c 0,-0.868 -0.704,-1.572 -1.573,-1.572 -0.868,0 -1.573,0.704 -1.573,1.572 0,0.869 0.705,1.573 1.573,1.573 C -0.704,1.573 0,0.869 0,0 m -4.194,-4.927 c -0.579,0 -1.048,0.47 -1.048,1.048 0,0.58 0.469,1.049 1.048,1.049 0.579,0 1.048,-0.469 1.048,-1.049 0,-0.578 -0.469,-1.048 -1.048,-1.048 m -2.515,6.29 c -0.927,0 -1.678,0.751 -1.678,1.678 0,0.926 0.751,1.677 1.678,1.677 0.925,0 1.677,-0.751 1.677,-1.677 0,-0.927 -0.752,-1.678 -1.677,-1.678 m -1.26,-3.984 c -0.694,0 -1.258,0.564 -1.258,1.259 0,0.694 0.564,1.258 1.258,1.258 0.695,0 1.258,-0.564 1.258,-1.258 0,-0.695 -0.563,-1.259 -1.258,-1.259 m -2.935,2.517 c -0.463,0 -0.838,0.375 -0.838,0.838 0,0.464 0.375,0.839 0.838,0.839 0.463,0 0.839,-0.375 0.839,-0.839 0,-0.463 -0.376,-0.838 -0.839,-0.838"
             style="fill:#ffffff;fill-opacity:1;fill-rule:nonzero;stroke:none"
             id="path1100" />
        </g>
        <g
           id="g1102"
           transform="matrix(0.20677836,0,0,-0.20733788,32.329558,37.888308)"
           style="fill:#ffffff"
           clip-path="url(#clipPath3826)">
          <path
             d="m 0,0 c -0.464,0 -0.839,0.375 -0.839,0.839 0,0.464 0.375,0.839 0.839,0.839 0.463,0 0.838,-0.375 0.838,-0.839 C 0.838,0.375 0.463,0 0,0 m -1.154,-3.774 c -0.637,0 -1.153,0.516 -1.153,1.153 0,0.637 0.516,1.153 1.153,1.153 0.637,0 1.153,-0.516 1.153,-1.153 0,-0.637 -0.516,-1.153 -1.153,-1.153"
             style="fill:#ffffff;fill-opacity:1;fill-rule:nonzero;stroke:none"
             id="path1104" />
        </g>
        <g
           id="g1106"
           transform="matrix(0.20677836,0,0,-0.20733788,25.912709,38.627219)"
           style="fill:#ffffff"
           clip-path="url(#clipPath3820)">
          <path
             d="m 0,0 c -0.579,0 -1.048,0.469 -1.048,1.048 0,0.579 0.469,1.048 1.048,1.048 0.579,0 1.048,-0.469 1.048,-1.048 C 1.048,0.469 0.579,0 0,0"
             style="fill:#ffffff;fill-opacity:1;fill-rule:nonzero;stroke:none"
             id="path1108" />
        </g>
        <g
           id="g1110"
           transform="matrix(0.20677836,0,0,-0.20733788,28.080511,27.584922)"
           style="fill:#ffffff"
           clip-path="url(#clipPath3814)">
          <path
             d="m 0,0 c 0.348,0 0.629,-0.281 0.629,-0.629 0,-0.347 -0.281,-0.629 -0.629,-0.629 -0.347,0 -0.629,0.282 -0.629,0.629 C -0.629,-0.281 -0.347,0 0,0 M -0.315,2.516 C -0.141,2.516 0,2.375 0,2.201 0,2.028 -0.141,1.887 -0.315,1.887 c -0.173,0 -0.314,0.141 -0.314,0.314 0,0.174 0.141,0.315 0.314,0.315 M 2.411,2.097 c 0.405,0 0.734,-0.329 0.734,-0.734 0,-0.405 -0.329,-0.734 -0.734,-0.734 -0.405,0 -0.733,0.329 -0.733,0.734 0,0.405 0.328,0.734 0.733,0.734"
             style="fill:#ffffff;fill-opacity:1;fill-rule:nonzero;stroke:none"
             id="path1112" />
        </g>
        <g
           id="g1114"
           transform="matrix(0.20677836,0,0,-0.20733788,30.399943,19.629222)"
           style="fill:#ffffff"
           clip-path="url(#clipPath3808)">
          <path
             d="m 0,0 c 0.521,0 0.944,-0.422 0.944,-0.943 0,-0.521 -0.423,-0.944 -0.944,-0.944 -0.521,0 -0.943,0.423 -0.943,0.944 C -0.943,-0.422 -0.521,0 0,0 m 0.734,3.145 c 0.58,0 1.049,-0.469 1.049,-1.048 0,-0.58 -0.469,-1.049 -1.049,-1.049 -0.578,0 -1.048,0.469 -1.048,1.049 0,0.579 0.47,1.048 1.048,1.048 m 2.517,-3.564 c 0.347,0 0.628,-0.281 0.628,-0.629 0,-0.347 -0.281,-0.629 -0.628,-0.629 -0.347,0 -0.629,0.282 -0.629,0.629 0,0.348 0.282,0.629 0.629,0.629"
             style="fill:#ffffff;fill-opacity:1;fill-rule:nonzero;stroke:none"
             id="path1116" />
        </g>
        <g
           id="g1118"
           transform="matrix(0.20677836,0,0,-0.20733788,24.351863,21.411748)"
           style="fill:#ffffff"
           clip-path="url(#clipPath3802)">
          <path
             d="M 0,0 C 1.042,0 1.887,0.845 1.887,1.887 1.887,2.929 1.042,3.774 0,3.774 -1.042,3.774 -1.887,2.929 -1.887,1.887 -1.887,0.845 -1.042,0 0,0"
             style="fill:#ffffff;fill-opacity:1;fill-rule:nonzero;stroke:none"
             id="path1120" />
        </g>
        <g
           id="g1122"
           transform="matrix(0.20677836,0,0,-0.20733788,24.243428,21.846556)"
           style="fill:#ffffff"
           clip-path="url(#clipPath3796)">
          <path
             d="m 0,0 c -0.637,0 -1.153,-0.516 -1.153,-1.153 0,-0.637 0.516,-1.153 1.153,-1.153 0.637,0 1.153,0.516 1.153,1.153 C 1.153,-0.516 0.637,0 0,0"
             style="fill:#ffffff;fill-opacity:1;fill-rule:nonzero;stroke:none"
             id="path1124" />
        </g>
        <g
           id="g1126"
           transform="matrix(0.20677836,0,0,-0.20733788,25.804274,22.324739)"
           style="fill:#ffffff"
           clip-path="url(#clipPath3790)">
          <path
             d="M 0,0 C 0.637,0 1.153,0.516 1.153,1.153 1.153,1.79 0.637,2.306 0,2.306 -0.637,2.306 -1.153,1.79 -1.153,1.153 -1.153,0.516 -0.637,0 0,0"
             style="fill:#ffffff;fill-opacity:1;fill-rule:nonzero;stroke:none"
             id="path1128" />
        </g>
        <g
           id="g1130"
           transform="matrix(0.20677836,0,0,-0.20733788,25.088841,23.281168)"
           style="fill:#ffffff"
           clip-path="url(#clipPath3784)">
          <path
             d="M 0,0 C 0.579,0 1.048,0.469 1.048,1.048 1.048,1.627 0.579,2.097 0,2.097 -0.579,2.097 -1.048,1.627 -1.048,1.048 -1.048,0.469 -0.579,0 0,0"
             style="fill:#ffffff;fill-opacity:1;fill-rule:nonzero;stroke:none"
             id="path1132" />
        </g>
        <g
           id="g1134"
           transform="matrix(0.20677836,0,0,-0.20733788,23.441314,22.324739)"
           style="fill:#ffffff"
           clip-path="url(#clipPath3778)">
          <path
             d="M 0,0 C 0.579,0 1.048,0.469 1.048,1.048 1.048,1.627 0.579,2.096 0,2.096 -0.579,2.096 -1.048,1.627 -1.048,1.048 -1.048,0.469 -0.579,0 0,0"
             style="fill:#ffffff;fill-opacity:1;fill-rule:nonzero;stroke:none"
             id="path1136" />
        </g>
        <g
           id="g1138"
           transform="matrix(0.20677836,0,0,-0.20733788,24.200129,23.455062)"
           style="fill:#ffffff"
           clip-path="url(#clipPath3772)">
          <path
             d="M 0,0 C 0.637,0 1.153,0.516 1.153,1.153 1.153,1.79 0.637,2.306 0,2.306 -0.637,2.306 -1.153,1.79 -1.153,1.153 -1.153,0.516 -0.637,0 0,0"
             style="fill:#ffffff;fill-opacity:1;fill-rule:nonzero;stroke:none"
             id="path1140" />
        </g>
        <g
           id="g1142"
           transform="matrix(0.20677836,0,0,-0.20733788,20.623215,27.889211)"
           style="fill:#ffffff"
           clip-path="url(#clipPath3766)">
          <path
             d="m 0,0 c 0,0.695 -0.563,1.258 -1.258,1.258 -0.695,0 -1.258,-0.563 -1.258,-1.258 0,-0.695 0.563,-1.258 1.258,-1.258 C -0.563,-1.258 0,-0.695 0,0"
             style="fill:#ffffff;fill-opacity:1;fill-rule:nonzero;stroke:none"
             id="path1144" />
        </g>
        <g
           id="g1146"
           transform="matrix(0.20677836,0,0,-0.20733788,20.536471,29.041263)"
           style="fill:#ffffff"
           clip-path="url(#clipPath3760)">
          <path
             d="M 0,0 C 0,-0.636 0.516,-1.153 1.153,-1.153 1.79,-1.153 2.306,-0.636 2.306,0 2.306,0.637 1.79,1.153 1.153,1.153 0.516,1.153 0,0.637 0,0"
             style="fill:#ffffff;fill-opacity:1;fill-rule:nonzero;stroke:none"
             id="path1148" />
        </g>
        <g
           id="g1150"
           transform="matrix(0.20677836,0,0,-0.20733788,19.886174,28.715224)"
           style="fill:#ffffff"
           clip-path="url(#clipPath3754)">
          <path
             d="m 0,0 c -0.464,0 -0.839,-0.375 -0.839,-0.839 0,-0.463 0.375,-0.838 0.839,-0.838 0.463,0 0.839,0.375 0.839,0.838 C 0.839,-0.375 0.463,0 0,0"
             style="fill:#ffffff;fill-opacity:1;fill-rule:nonzero;stroke:none"
             id="path1152" />
        </g>
        <g
           id="g1154"
           transform="matrix(0.20677836,0,0,-0.20733788,21.316894,28.497914)"
           style="fill:#ffffff"
           clip-path="url(#clipPath3748)">
          <path
             d="M 0,0 C 0.579,0 1.048,0.47 1.048,1.049 1.048,1.627 0.579,2.097 0,2.097 -0.579,2.097 -1.048,1.627 -1.048,1.049 -1.048,0.47 -0.579,0 0,0"
             style="fill:#ffffff;fill-opacity:1;fill-rule:nonzero;stroke:none"
             id="path1156" />
        </g>
        <g
           id="g1158"
           transform="matrix(0.20677836,0,0,-0.20733788,22.097317,34.062595)"
           style="fill:#ffffff"
           clip-path="url(#clipPath3742)">
          <path
             d="m 0,0 c -0.579,0 -1.048,-0.47 -1.048,-1.048 0,-0.579 0.469,-1.048 1.048,-1.048 0.579,0 1.048,0.469 1.048,1.048 C 1.048,-0.47 0.579,0 0,0"
             style="fill:#ffffff;fill-opacity:1;fill-rule:nonzero;stroke:none"
             id="path1160" />
        </g>
        <g
           id="g1162"
           transform="matrix(0.20677836,0,0,-0.20733788,22.747635,34.758149)"
           style="fill:#ffffff"
           clip-path="url(#clipPath3736)">
          <path
             d="m 0,0 c -0.463,0 -0.839,-0.375 -0.839,-0.838 0,-0.463 0.376,-0.839 0.839,-0.839 0.463,0 0.838,0.376 0.838,0.839 C 0.838,-0.375 0.463,0 0,0"
             style="fill:#ffffff;fill-opacity:1;fill-rule:nonzero;stroke:none"
             id="path1164" />
        </g>
        <g
           id="g1166"
           transform="matrix(0.20677836,0,0,-0.20733788,21.945521,34.931982)"
           style="fill:#ffffff"
           clip-path="url(#clipPath3730)">
          <path
             d="m 0,0 c -0.405,0 -0.734,-0.329 -0.734,-0.734 0,-0.406 0.329,-0.734 0.734,-0.734 0.405,0 0.734,0.328 0.734,0.734 C 0.734,-0.329 0.405,0 0,0"
             style="fill:#ffffff;fill-opacity:1;fill-rule:nonzero;stroke:none"
             id="path1168" />
        </g>
        <g
           id="g1170"
           transform="matrix(0.20677836,0,0,-0.20733788,25.912709,38.192599)"
           style="fill:#ffffff"
           clip-path="url(#clipPath3724)">
          <path
             d="m 0,0 c -0.579,0 -1.048,-0.47 -1.048,-1.048 0,-0.579 0.469,-1.048 1.048,-1.048 0.579,0 1.048,0.469 1.048,1.048 C 1.048,-0.47 0.579,0 0,0"
             style="fill:#ffffff;fill-opacity:1;fill-rule:nonzero;stroke:none"
             id="path1172" />
        </g>
        <g
           id="g1174"
           transform="matrix(0.20677836,0,0,-0.20733788,25.656014,38.779364)"
           style="fill:#ffffff"
           clip-path="url(#clipPath3718)">
          <path
             d="M 0,0 H 0.595 C 0.51,0.061 0.411,0.105 0.298,0.105 0.185,0.105 0.086,0.061 0,0"
             style="fill:#ffffff;fill-opacity:1;fill-rule:nonzero;stroke:none"
             id="path1176" />
        </g>
        <g
           id="g1178"
           transform="matrix(0.20677836,0,0,-0.20733788,27.083281,31.845303)"
           style="fill:#ffffff"
           clip-path="url(#clipPath3712)">
          <path
             d="m 0,0 c -0.926,0 -1.677,-0.751 -1.677,-1.677 0,-0.927 0.751,-1.678 1.677,-1.678 0.927,0 1.678,0.751 1.678,1.678 C 1.678,-0.751 0.927,0 0,0"
             style="fill:#ffffff;fill-opacity:1;fill-rule:nonzero;stroke:none"
             id="path1180" />
        </g>
        <g
           id="g1182"
           transform="matrix(0.20677836,0,0,-0.20733788,28.925986,32.323545)"
           style="fill:#ffffff"
           clip-path="url(#clipPath3706)">
          <path
             d="m 0,0 c -1.331,0 -2.411,-1.079 -2.411,-2.411 0,-1.332 1.08,-2.412 2.411,-2.412 1.332,0 2.411,1.08 2.411,2.412 C 2.411,-1.079 1.332,0 0,0"
             style="fill:#ffffff;fill-opacity:1;fill-rule:nonzero;stroke:none"
             id="path1184" />
        </g>
        <g
           id="g1186"
           transform="matrix(0.20677836,0,0,-0.20733788,27.863765,33.497305)"
           style="fill:#ffffff"
           clip-path="url(#clipPath3700)">
          <path
             d="m 0,0 c -0.811,0 -1.468,-0.657 -1.468,-1.468 0,-0.81 0.657,-1.468 1.468,-1.468 0.811,0 1.468,0.658 1.468,1.468 C 1.468,-0.657 0.811,0 0,0"
             style="fill:#ffffff;fill-opacity:1;fill-rule:nonzero;stroke:none"
             id="path1188" />
        </g>
        <g
           id="g1190"
           transform="matrix(0.20677836,0,0,-0.20733788,26.844865,33.54085)"
           style="fill:#ffffff"
           clip-path="url(#clipPath3694)">
          <path
             d="m 0,0 c -0.637,0 -1.153,-0.516 -1.153,-1.153 0,-0.636 0.516,-1.154 1.153,-1.154 0.637,0 1.153,0.518 1.153,1.154 C 1.153,-0.516 0.637,0 0,0"
             style="fill:#ffffff;fill-opacity:1;fill-rule:nonzero;stroke:none"
             id="path1192" />
        </g>
        <g
           id="g1194"
           transform="matrix(0.20677836,0,0,-0.20733788,28.817551,34.323382)"
           style="fill:#ffffff"
           clip-path="url(#clipPath3688)">
          <path
             d="m 0,0 c -0.463,0 -0.839,-0.376 -0.839,-0.838 0,-0.464 0.376,-0.839 0.839,-0.839 0.464,0 0.839,0.375 0.839,0.839 C 0.839,-0.376 0.464,0 0,0"
             style="fill:#ffffff;fill-opacity:1;fill-rule:nonzero;stroke:none"
             id="path1196" />
        </g>
        <g
           id="g1198"
           transform="matrix(0.20677836,0,0,-0.20733788,28.015438,27.193655)"
           style="fill:#ffffff"
           clip-path="url(#clipPath3682)">
          <path
             d="M 0,0 C 0.174,0 0.315,0.141 0.315,0.314 0.315,0.488 0.174,0.629 0,0.629 -0.173,0.629 -0.314,0.488 -0.314,0.314 -0.314,0.141 -0.173,0 0,0"
             style="fill:#ffffff;fill-opacity:1;fill-rule:nonzero;stroke:none"
             id="path1200" />
        </g>
        <g
           id="g1202"
           transform="matrix(0.20677836,0,0,-0.20733788,28.579136,27.454507)"
           style="fill:#ffffff"
           clip-path="url(#clipPath3676)">
          <path
             d="M 0,0 C 0.405,0 0.734,0.329 0.734,0.734 0.734,1.139 0.405,1.468 0,1.468 -0.405,1.468 -0.734,1.139 -0.734,0.734 -0.734,0.329 -0.405,0 0,0"
             style="fill:#ffffff;fill-opacity:1;fill-rule:nonzero;stroke:none"
             id="path1204" />
        </g>
        <g
           id="g1206"
           transform="matrix(0.20677836,0,0,-0.20733788,28.080511,27.845712)"
           style="fill:#ffffff"
           clip-path="url(#clipPath3670)">
          <path
             d="M 0,0 C 0.348,0 0.629,0.282 0.629,0.629 0.629,0.977 0.348,1.258 0,1.258 -0.347,1.258 -0.629,0.977 -0.629,0.629 -0.629,0.282 -0.347,0 0,0"
             style="fill:#ffffff;fill-opacity:1;fill-rule:nonzero;stroke:none"
             id="path1208" />
        </g>
        <g
           id="g1210"
           transform="matrix(0.20677836,0,0,-0.20733788,33.058907,24.343692)"
           style="fill:#ffffff"
           clip-path="url(#clipPath3664)">
          <path
             d="m 0,0 c -0.927,0 -1.678,-0.751 -1.678,-1.677 0,-0.927 0.751,-1.678 1.678,-1.678 0.926,0 1.677,0.751 1.677,1.678 C 1.677,-0.751 0.926,0 0,0"
             style="fill:#ffffff;fill-opacity:1;fill-rule:nonzero;stroke:none"
             id="path1212" />
        </g>
        <g
           id="g1214"
           transform="matrix(0.20677836,0,0,-0.20733788,33.795823,25.321933)"
           style="fill:#ffffff"
           clip-path="url(#clipPath3658)">
          <path
             d="m 0,0 c 0,-0.868 0.705,-1.572 1.573,-1.572 0.868,0 1.573,0.704 1.573,1.572 0,0.869 -0.705,1.573 -1.573,1.573 C 0.705,1.573 0,0.869 0,0"
             style="fill:#ffffff;fill-opacity:1;fill-rule:nonzero;stroke:none"
             id="path1216" />
        </g>
        <g
           id="g1218"
           transform="matrix(0.20677836,0,0,-0.20733788,32.798531,25.343599)"
           style="fill:#ffffff"
           clip-path="url(#clipPath3652)">
          <path
             d="m 0,0 c -0.695,0 -1.258,-0.563 -1.258,-1.258 0,-0.695 0.563,-1.258 1.258,-1.258 0.695,0 1.258,0.563 1.258,1.258 C 1.258,-0.563 0.695,0 0,0"
             style="fill:#ffffff;fill-opacity:1;fill-rule:nonzero;stroke:none"
             id="path1220" />
        </g>
        <g
           id="g1222"
           transform="matrix(0.20677836,0,0,-0.20733788,33.579099,25.908699)"
           style="fill:#ffffff"
           clip-path="url(#clipPath3646)">
          <path
             d="m 0,0 c -0.579,0 -1.049,-0.469 -1.049,-1.049 0,-0.579 0.47,-1.048 1.049,-1.048 0.579,0 1.047,0.469 1.047,1.048 C 1.047,-0.469 0.579,0 0,0"
             style="fill:#ffffff;fill-opacity:1;fill-rule:nonzero;stroke:none"
             id="path1224" />
        </g>
        <g
           id="g1226"
           transform="matrix(0.20677836,0,0,-0.20733788,32.191596,24.995832)"
           style="fill:#ffffff"
           clip-path="url(#clipPath3640)">
          <path
             d="m 0,0 c -0.463,0 -0.838,-0.375 -0.838,-0.838 0,-0.463 0.375,-0.839 0.838,-0.839 0.463,0 0.839,0.376 0.839,0.839 C 0.839,-0.375 0.463,0 0,0"
             style="fill:#ffffff;fill-opacity:1;fill-rule:nonzero;stroke:none"
             id="path1228" />
        </g>
        <g
           id="g1230"
           transform="matrix(0.20677836,0,0,-0.20733788,30.551823,19.411829)"
           style="fill:#ffffff"
           clip-path="url(#clipPath3634)">
          <path
             d="M 0,0 C 0.579,0 1.049,0.469 1.049,1.048 1.049,1.627 0.579,2.096 0,2.096 -0.578,2.096 -1.048,1.627 -1.048,1.048 -1.048,0.469 -0.578,0 0,0"
             style="fill:#ffffff;fill-opacity:1;fill-rule:nonzero;stroke:none"
             id="path1232" />
        </g>
        <g
           id="g1234"
           transform="matrix(0.20677836,0,0,-0.20733788,30.399943,20.020407)"
           style="fill:#ffffff"
           clip-path="url(#clipPath3628)">
          <path
             d="M 0,0 C 0.521,0 0.944,0.422 0.944,0.944 0.944,1.464 0.521,1.887 0,1.887 -0.521,1.887 -0.943,1.464 -0.943,0.944 -0.943,0.422 -0.521,0 0,0"
             style="fill:#ffffff;fill-opacity:1;fill-rule:nonzero;stroke:none"
             id="path1236" />
        </g>
        <g
           id="g1238"
           transform="matrix(0.20677836,0,0,-0.20733788,31.072159,19.976907)"
           style="fill:#ffffff"
           clip-path="url(#clipPath3622)">
          <path
             d="M 0,0 C 0.347,0 0.629,0.282 0.629,0.629 0.629,0.977 0.347,1.258 0,1.258 -0.347,1.258 -0.629,0.977 -0.629,0.629 -0.629,0.282 -0.347,0 0,0"
             style="fill:#ffffff;fill-opacity:1;fill-rule:nonzero;stroke:none"
             id="path1240" />
        </g>
        <g
           id="g1242"
           transform="matrix(0.20677836,0,0,-0.20733788,37.01193,20.411757)"
           style="fill:#ffffff"
           clip-path="url(#clipPath3616)">
          <path
             d="m 0,0 c 0,0.81 -0.657,1.468 -1.468,1.468 -0.81,0 -1.467,-0.658 -1.467,-1.468 0,-0.81 0.657,-1.468 1.467,-1.468 C -0.657,-1.468 0,-0.81 0,0"
             style="fill:#ffffff;fill-opacity:1;fill-rule:nonzero;stroke:none"
             id="path1244" />
        </g>
        <g
           id="g1246"
           transform="matrix(0.20677836,0,0,-0.20733788,36.058164,20.846441)"
           style="fill:#ffffff"
           clip-path="url(#clipPath3610)">
          <path
             d="m 0,0 c -0.927,0 -1.677,-0.751 -1.677,-1.677 0,-0.927 0.75,-1.678 1.677,-1.678 0.926,0 1.677,0.751 1.677,1.678 C 1.677,-0.751 0.926,0 0,0"
             style="fill:#ffffff;fill-opacity:1;fill-rule:nonzero;stroke:none"
             id="path1248" />
        </g>
        <g
           id="g1250"
           transform="matrix(0.20677836,0,0,-0.20733788,35.732943,22.020326)"
           style="fill:#ffffff"
           clip-path="url(#clipPath3604)">
          <path
             d="m 0,0 c -0.637,0 -1.153,-0.516 -1.153,-1.153 0,-0.637 0.516,-1.153 1.153,-1.153 0.636,0 1.153,0.516 1.153,1.153 C 1.153,-0.516 0.636,0 0,0"
             style="fill:#ffffff;fill-opacity:1;fill-rule:nonzero;stroke:none"
             id="path1252" />
        </g>
        <g
           id="g1254"
           transform="matrix(0.20677836,0,0,-0.20733788,37.337151,21.194209)"
           style="fill:#ffffff"
           clip-path="url(#clipPath3598)">
          <path
             d="m 0,0 c -0.753,0 -1.363,-0.61 -1.363,-1.363 0,-0.753 0.61,-1.363 1.363,-1.363 0.752,0 1.363,0.61 1.363,1.363 C 1.363,-0.61 0.752,0 0,0"
             style="fill:#ffffff;fill-opacity:1;fill-rule:nonzero;stroke:none"
             id="path1256" />
        </g>
        <g
           id="g1258"
           transform="matrix(0.20677836,0,0,-0.20733788,36.838608,21.889848)"
           style="fill:#ffffff"
           clip-path="url(#clipPath3592)">
          <path
             d="m 0,0 c -0.81,0 -1.468,-0.657 -1.468,-1.468 0,-0.81 0.658,-1.468 1.468,-1.468 0.81,0 1.468,0.658 1.468,1.468 C 1.468,-0.657 0.81,0 0,0"
             style="fill:#ffffff;fill-opacity:1;fill-rule:nonzero;stroke:none"
             id="path1260" />
        </g>
        <g
           id="g1262"
           transform="matrix(0.20677836,0,0,-0.20733788,32.329558,37.540372)"
           style="fill:#ffffff"
           clip-path="url(#clipPath3586)">
          <path
             d="m 0,0 c -0.464,0 -0.839,-0.376 -0.839,-0.839 0,-0.464 0.375,-0.839 0.839,-0.839 0.463,0 0.838,0.375 0.838,0.839 C 0.838,-0.376 0.463,0 0,0"
             style="fill:#ffffff;fill-opacity:1;fill-rule:nonzero;stroke:none"
             id="path1264" />
        </g>
        <g
           id="g1266"
           transform="matrix(0.20677836,0,0,-0.20733788,33.890383,38.583739)"
           style="fill:#ffffff"
           clip-path="url(#clipPath3580)">
          <path
             d="m 0,0 c 0,0.695 -0.564,1.258 -1.258,1.258 -0.695,0 -1.258,-0.563 -1.258,-1.258 0,-0.378 0.169,-0.713 0.433,-0.944 h 1.649 C -0.17,-0.713 0,-0.378 0,0"
             style="fill:#ffffff;fill-opacity:1;fill-rule:nonzero;stroke:none"
             id="path1268" />
        </g>
        <g
           id="g1270"
           transform="matrix(0.20677836,0,0,-0.20733788,32.090915,38.192599)"
           style="fill:#ffffff"
           clip-path="url(#clipPath3574)">
          <path
             d="m 0,0 c -0.637,0 -1.153,-0.516 -1.153,-1.153 0,-0.637 0.516,-1.154 1.153,-1.154 0.637,0 1.153,0.517 1.153,1.154 C 1.153,-0.516 0.637,0 0,0"
             style="fill:#ffffff;fill-opacity:1;fill-rule:nonzero;stroke:none"
             id="path1272" />
        </g>
        <g
           id="g1274"
           transform="matrix(0.20677836,0,0,-0.20733788,36.925186,30.193336)"
           style="fill:#ffffff"
           clip-path="url(#clipPath3568)">
          <path
             d="m 0,0 c -0.695,0 -1.258,-0.564 -1.258,-1.258 0,-0.695 0.563,-1.258 1.258,-1.258 0.695,0 1.259,0.563 1.259,1.258 C 1.259,-0.564 0.695,0 0,0"
             style="fill:#ffffff;fill-opacity:1;fill-rule:nonzero;stroke:none"
             id="path1276" />
        </g>
        <g
           id="g1278"
           transform="matrix(0.20677836,0,0,-0.20733788,38.616157,30.584604)"
           style="fill:#ffffff"
           clip-path="url(#clipPath3562)">
          <path
             d="M 0,0 C 0.927,0 1.677,0.751 1.677,1.677 1.677,2.604 0.927,3.355 0,3.355 -0.926,3.355 -1.677,2.604 -1.677,1.677 -1.677,0.751 -0.926,0 0,0"
             style="fill:#ffffff;fill-opacity:1;fill-rule:nonzero;stroke:none"
             id="path1280" />
        </g>
        <g
           id="g1282"
           transform="matrix(0.20677836,0,0,-0.20733788,37.922499,30.845393)"
           style="fill:#ffffff"
           clip-path="url(#clipPath3556)">
          <path
             d="m 0,0 c -1.506,0 -2.726,-1.22 -2.726,-2.726 0,-1.506 1.22,-2.726 2.726,-2.726 1.505,0 2.726,1.22 2.726,2.726 C 2.726,-1.22 1.505,0 0,0"
             style="fill:#ffffff;fill-opacity:1;fill-rule:nonzero;stroke:none"
             id="path1284" />
        </g>
        <g
           id="g1286"
           transform="matrix(0.20677836,0,0,-0.20733788,39.223094,31.323723)"
           style="fill:#ffffff"
           clip-path="url(#clipPath3550)">
          <path
             d="m 0,0 c -0.811,0 -1.468,-0.657 -1.468,-1.468 0,-0.81 0.657,-1.467 1.468,-1.467 0.811,0 1.468,0.657 1.468,1.467 C 1.468,-0.657 0.811,0 0,0"
             style="fill:#ffffff;fill-opacity:1;fill-rule:nonzero;stroke:none"
             id="path1288" />
        </g>
        <g
           id="g1290"
           transform="matrix(0.20677836,0,0,-0.20733788,36.405015,31.975779)"
           style="fill:#ffffff"
           clip-path="url(#clipPath3544)">
          <path
             d="m 0,0 c -0.811,0 -1.468,-0.657 -1.468,-1.468 0,-0.81 0.657,-1.468 1.468,-1.468 0.81,0 1.468,0.658 1.468,1.468 C 1.468,-0.657 0.81,0 0,0"
             style="fill:#ffffff;fill-opacity:1;fill-rule:nonzero;stroke:none"
             id="path1292" />
        </g>
        <g
           id="g1294"
           transform="matrix(0.20677836,0,0,-0.20733788,37.662248,32.345232)"
           style="fill:#ffffff"
           clip-path="url(#clipPath3538)">
          <path
             d="m 0,0 c 0,0.521 -0.422,0.943 -0.943,0.943 -0.521,0 -0.944,-0.422 -0.944,-0.943 0,-0.521 0.423,-0.944 0.944,-0.944 C -0.422,-0.944 0,-0.521 0,0"
             style="fill:#ffffff;fill-opacity:1;fill-rule:nonzero;stroke:none"
             id="path1296" />
        </g>
        <g
           id="g1298"
           transform="matrix(0.20677836,0,0,-0.20733788,38.702777,32.58442)"
           style="fill:#ffffff"
           clip-path="url(#clipPath3532)">
          <path
             d="m 0,0 c -0.695,0 -1.258,-0.563 -1.258,-1.258 0,-0.695 0.563,-1.258 1.258,-1.258 0.695,0 1.258,0.563 1.258,1.258 C 1.258,-0.563 0.695,0 0,0"
             style="fill:#ffffff;fill-opacity:1;fill-rule:nonzero;stroke:none"
             id="path1300" />
        </g>
        <g
           id="g1302"
           transform="matrix(0.20677836,0,0,-0.20733788,37.814126,33.149598)"
           style="fill:#ffffff"
           clip-path="url(#clipPath3526)">
          <path
             d="m 0,0 c -0.637,0 -1.153,-0.517 -1.153,-1.153 0,-0.637 0.516,-1.153 1.153,-1.153 0.636,0 1.153,0.516 1.153,1.153 C 1.153,-0.517 0.636,0 0,0"
             style="fill:#ffffff;fill-opacity:1;fill-rule:nonzero;stroke:none"
             id="path1304" />
        </g>
        <g
           id="g1306"
           transform="matrix(0.20677836,0,0,-0.20733788,20.290881,24.416136)"
           style="fill:#ffffff"
           clip-path="url(#clipPath3520)">
          <path
             d="M 0,0 C 1.159,0 2.099,-0.488 2.099,0.636 2.099,1.76 1.159,2.671 0,2.671 -1.159,2.671 -2.099,1.76 -2.099,0.636 -2.099,-0.488 -1.159,0 0,0"
             style="fill:#ffffff;fill-opacity:1;fill-rule:nonzero;stroke:none"
             id="path1308" />
        </g>
        <g
           id="g1310"
           transform="matrix(0.20677836,0,0,-0.20733788,20.806668,32.319213)"
           style="fill:#ffffff"
           clip-path="url(#clipPath3514)">
          <path
             d="M 0,0 C -0.603,0.99 -0.676,2.046 -1.635,1.461 -2.596,0.875 -2.884,-0.401 -2.281,-1.391 -1.677,-2.38 -0.41,-2.708 0.549,-2.123 1.509,-1.538 0.603,-0.99 0,0"
             style="fill:#ffffff;fill-opacity:1;fill-rule:nonzero;stroke:none"
             id="path1312" />
        </g>
        <g
           id="g1314"
           transform="matrix(0.20677836,0,0,-0.20733788,25.281807,35.787522)"
           style="fill:#ffffff"
           clip-path="url(#clipPath3508)">
          <path
             d="m 0,0 c -0.96,-0.586 -1.249,-1.862 -0.645,-2.852 0.603,-0.99 1.87,-1.318 2.83,-0.732 C 3.144,-3 2.239,-2.452 1.635,-1.461 1.032,-0.472 0.96,0.585 0,0"
             style="fill:#ffffff;fill-opacity:1;fill-rule:nonzero;stroke:none"
             id="path1316" />
        </g>
        <g
           id="g1318"
           transform="matrix(0.20677836,0,0,-0.20733788,36.749569,36.2096)"
           style="fill:#ffffff"
           clip-path="url(#clipPath3502)">
          <path
             d="m 0,0 c -0.96,-0.586 -1.249,-1.862 -0.646,-2.852 0.604,-0.989 1.871,-1.317 2.831,-0.732 0.959,0.585 0.054,1.133 -0.55,2.123 C 1.032,-0.472 0.959,0.585 0,0"
             style="fill:#ffffff;fill-opacity:1;fill-rule:nonzero;stroke:none"
             id="path1320" />
        </g>
        <g
           id="g1322"
           transform="matrix(0.20677836,0,0,-0.20733788,33.19201,30.402789)"
           style="fill:#ffffff"
           clip-path="url(#clipPath3496)">
          <path
             d="m 0,0 c 0,1.124 -0.939,2.035 -2.098,2.035 -1.16,0 -2.099,-0.911 -2.099,-2.035 0,-1.124 0.939,-0.636 2.099,-0.636 C -0.939,-0.636 0,-1.124 0,0"
             style="fill:#ffffff;fill-opacity:1;fill-rule:nonzero;stroke:none"
             id="path1324" />
        </g>
        <g
           id="g1326"
           transform="matrix(0.20677836,0,0,-0.20733788,32.96904,21.86532)"
           style="fill:#ffffff"
           clip-path="url(#clipPath3490)">
          <path
             d="M 0,0 C 1.159,0 2.099,-0.488 2.099,0.636 2.099,1.76 1.159,2.671 0,2.671 -1.159,2.671 -2.099,1.76 -2.099,0.636 -2.099,-0.488 -1.159,0 0,0"
             style="fill:#ffffff;fill-opacity:1;fill-rule:nonzero;stroke:none"
             id="path1328" />
        </g>
        <g
           id="g1330"
           transform="matrix(0.20677836,0,0,-0.20733788,24.568587,28.353482)"
           style="fill:#ffffff"
           clip-path="url(#clipPath3484)">
          <path
             d="m 0,0 c -0.809,-0.463 -1.101,-1.475 -0.652,-2.26 0.449,-0.784 0.91,-0.068 1.719,0.395 0.81,0.463 1.661,0.498 1.212,1.283 C 1.829,0.203 0.809,0.463 0,0"
             style="fill:#ffffff;fill-opacity:1;fill-rule:nonzero;stroke:none"
             id="path1332" />
        </g>
        <g
           id="g1334"
           transform="matrix(0.20677836,0,0,-0.20733788,32.853989,34.784832)"
           style="fill:#ffffff"
           clip-path="url(#clipPath3478)">
          <path
             d="m 0,0 c -0.932,0.039 -1.671,0.463 -1.708,-0.439 -0.039,-0.905 0.686,-1.669 1.617,-1.709 0.932,-0.038 1.718,0.663 1.756,1.566 C 1.703,0.32 0.931,-0.039 0,0"
             style="fill:#ffffff;fill-opacity:1;fill-rule:nonzero;stroke:none"
             id="path1336" />
        </g>
        <g
           id="g1338"
           transform="matrix(0.20677836,0,0,-0.20733788,39.805278,28.18842)"
           style="fill:#ffffff"
           clip-path="url(#clipPath3472)">
          <path
             d="M 0,0 C 0.932,-0.039 1.717,0.662 1.756,1.565 1.794,2.468 1.022,2.109 0.091,2.147 -0.841,2.186 -1.58,2.61 -1.618,1.708 -1.656,0.804 -0.932,0.04 0,0"
             style="fill:#ffffff;fill-opacity:1;fill-rule:nonzero;stroke:none"
             id="path1340" />
        </g>
        <g
           id="g1342"
           transform="matrix(0.20677836,0,0,-0.20733788,29.256046,23.656201)"
           style="fill:#ffffff"
           clip-path="url(#clipPath3466)">
          <path
             d="M 0,0 C 0.722,-0.591 1.057,-1.374 1.631,-0.675 2.204,0.025 2.083,1.071 1.362,1.662 0.641,2.253 -0.408,2.165 -0.981,1.465 -1.554,0.767 -0.721,0.591 0,0"
             style="fill:#ffffff;fill-opacity:1;fill-rule:nonzero;stroke:none"
             id="path1344" />
        </g>
        <g
           id="g1346"
           transform="matrix(0.20677836,0,0,-0.20733788,36.744607,25.395144)"
           style="fill:#ffffff"
           clip-path="url(#clipPath3460)">
          <path
             d="m 0,0 c -0.721,0.591 -1.771,0.503 -2.344,-0.196 -0.573,-0.699 0.261,-0.875 0.982,-1.466 0.722,-0.591 1.057,-1.374 1.63,-0.675 C 0.842,-1.637 0.721,-0.591 0,0"
             style="fill:#ffffff;fill-opacity:1;fill-rule:nonzero;stroke:none"
             id="path1348" />
        </g>
        <g
           id="g1350"
           transform="matrix(0.20677836,0,0,-0.20733788,28.125154,19.304594)"
           style="fill:#ffffff"
           clip-path="url(#clipPath3454)">
          <path
             d="M 0,0 C 0.722,-0.591 1.057,-1.374 1.63,-0.675 2.204,0.025 2.083,1.071 1.362,1.662 0.641,2.253 -0.408,2.165 -0.982,1.465 -1.554,0.767 -0.721,0.591 0,0"
             style="fill:#ffffff;fill-opacity:1;fill-rule:nonzero;stroke:none"
             id="path1352" />
        </g>
        <g
           id="g1354"
           transform="matrix(0.20677836,0,0,-0.20733788,49.701111,26.609957)"
           style="fill:#ffffff"
           clip-path="url(#clipPath3448)">
          <path
             d="m 0,0 c -2.27,18.782 -9.794,35.967 -21.059,50.039 -0.801,-0.817 -1.595,-1.64 -2.4,-2.452 C -12.807,34.162 -5.665,17.833 -3.432,0 Z"
             style="fill:#ffffff;fill-opacity:1;fill-rule:nonzero;stroke:none"
             id="path1356" />
        </g>
        <g
           id="g1358"
           transform="matrix(0.20677836,0,0,-0.20733788,13.945866,15.61429)"
           style="fill:#ffffff"
           clip-path="url(#clipPath3442)">
          <path
             d="m 0,0 c -0.203,0.136 -0.407,0.273 -0.612,0.41 -12.843,-14.663 -21.456,-33.117 -23.912,-53.443 h 3.434 c 2.445,19.527 10.777,37.249 23.156,51.331 C 1.56,-1.254 1.051,-0.808 0.527,-0.382 0.392,-0.284 0.221,-0.161 0,0"
             style="fill:#ffffff;fill-opacity:1;fill-rule:nonzero;stroke:none"
             id="path1360" />
        </g>
        <g
           id="g1362"
           transform="matrix(0.20677836,0,0,-0.20733788,10.298709,28.87108)"
           style="fill:#ffffff"
           clip-path="url(#clipPath3436)">
          <path
             d="M 0,0 -3.761,0.087 C -4.055,0.094 -4.315,0.283 -4.413,0.561 L -5.657,4.11 c -0.1,0.284 -0.368,0.474 -0.669,0.474 -0.3,0 -0.569,-0.19 -0.668,-0.474 L -8.239,0.561 C -8.336,0.283 -8.596,0.094 -8.891,0.087 L -12.651,0 c -0.301,-0.007 -0.565,-0.203 -0.658,-0.49 -0.093,-0.286 0.005,-0.599 0.244,-0.782 l 2.991,-2.28 c 0.235,-0.179 0.334,-0.484 0.25,-0.766 l -1.08,-3.604 c -0.086,-0.288 0.019,-0.6 0.262,-0.777 0.244,-0.177 0.572,-0.181 0.82,-0.009 l 3.093,2.14 c 0.243,0.168 0.564,0.168 0.807,0 l 3.093,-2.14 c 0.247,-0.172 0.576,-0.167 0.819,0.009 0.244,0.177 0.349,0.489 0.263,0.777 l -1.08,3.604 c -0.085,0.282 0.015,0.587 0.249,0.766 l 2.991,2.28 C 0.652,-1.09 0.75,-0.776 0.657,-0.49 0.565,-0.203 0.301,-0.007 0,0"
             style="fill:#ffffff;fill-opacity:1;fill-rule:nonzero;stroke:none"
             id="path1364" />
        </g>
        <g
           id="g1366"
           transform="matrix(0.20677836,0,0,-0.20733788,51.106666,29.134814)"
           style="fill:#ffffff"
           clip-path="url(#clipPath3430)">
          <path
             d="M 0,0 C 0.239,0.183 0.337,0.496 0.244,0.783 0.151,1.069 -0.112,1.265 -0.413,1.272 L -4.174,1.359 C -4.469,1.366 -4.729,1.555 -4.826,1.833 L -6.07,5.381 c -0.1,0.284 -0.368,0.474 -0.67,0.474 -0.3,0 -0.568,-0.19 -0.668,-0.474 L -8.651,1.833 C -8.748,1.555 -9.008,1.366 -9.303,1.359 L -13.065,1.272 C -13.366,1.265 -13.629,1.069 -13.722,0.782 -13.815,0.496 -13.717,0.183 -13.478,0 l 2.991,-2.279 c 0.234,-0.18 0.334,-0.485 0.249,-0.768 l -1.08,-3.603 c -0.086,-0.288 0.018,-0.6 0.262,-0.776 0.244,-0.177 0.572,-0.181 0.819,-0.01 l 3.094,2.141 c 0.242,0.167 0.564,0.167 0.806,0 l 3.094,-2.141 c 0.247,-0.172 0.576,-0.168 0.819,0.009 0.245,0.177 0.35,0.488 0.263,0.777 l -1.08,3.603 c -0.084,0.283 0.016,0.588 0.25,0.767 z"
             style="fill:#ffffff;fill-opacity:1;fill-rule:nonzero;stroke:none"
             id="path1368" />
        </g>
        <path
           d="M 16.308067,135.72884 H 104.75475 V 131.6091 H 16.308067 Z"
           style="fill:#ffffff;fill-opacity:1;fill-rule:nonzero;stroke:none;stroke-width:0.352778"
           id="path1370"
           clip-path="url(#clipPath3424)"
           transform="matrix(0.58614339,0,0,0.58772943,-6.1916977,-27.604228)" />
        <g
           id="g1372"
           transform="matrix(0.20677836,0,0,-0.20733788,35.276336,15.80728)"
           style="fill:#ffffff"
           clip-path="url(#clipPath3418)">
          <path
             d="m 0,0 c 2.223,-0.991 3.76,-3.318 5.852,-4.528 2.105,-1.217 4.887,-1.392 6.845,-2.816 1.962,-1.428 2.984,-4.024 4.785,-5.645 1.802,-1.624 4.489,-2.37 6.112,-4.172 1.622,-1.8 2.085,-4.549 3.514,-6.512 1.424,-1.958 3.898,-3.243 5.116,-5.347 1.21,-2.093 1.093,-4.878 2.084,-7.101 0.814,-1.824 2.418,-3.358 3.377,-5.145 l 8.23,2.797 C 37.785,-14.954 18.798,3.54 -5.026,10.983 L -7.803,1.531 C -7.629,1.461 -7.457,1.385 -7.28,1.327 -4.961,0.574 -2.204,0.983 0,0"
             style="fill:#ffffff;fill-opacity:1;fill-rule:nonzero;stroke:none"
             id="path1374" />
        </g>
        <g
           id="g1376"
           transform="matrix(0.20677836,0,0,-0.20733788,33.162585,23.72485)"
           style="fill:#ffffff"
           clip-path="url(#clipPath3412)">
          <path
             d="m 0,0 c 4.374,0 7.919,-3.546 7.919,-7.919 0,-4.373 -3.545,-7.918 -7.919,-7.918 -4.373,0 -7.918,3.545 -7.918,7.918 C -7.918,-3.546 -4.373,0 0,0 m -0.936,11.64 c 1.159,0 2.099,-0.911 2.099,-2.035 0,-1.124 -0.94,-0.636 -2.099,-0.636 -1.159,0 -2.099,-0.488 -2.099,0.636 0,1.124 0.94,2.035 2.099,2.035 m 17.15,8.139 c 4.757,0 8.614,-3.857 8.614,-8.614 0,-4.757 -3.857,-8.614 -8.614,-8.614 -4.757,0 -8.613,3.857 -8.613,8.614 0,4.757 3.856,8.614 8.613,8.614 m 1.377,-30.172 c -0.573,-0.699 -0.908,0.084 -1.63,0.675 -0.721,0.591 -1.555,0.767 -0.982,1.466 0.573,0.699 1.623,0.787 2.344,0.196 0.721,-0.591 0.842,-1.637 0.268,-2.337 m 27.654,6.409 c -0.314,0.506 -0.699,1.03 -1.108,1.573 -0.73,0.97 -1.557,2.07 -2.129,3.352 -0.577,1.295 -0.845,2.653 -1.08,3.852 -0.228,1.155 -0.443,2.247 -0.873,2.99 -0.435,0.752 -1.277,1.484 -2.169,2.26 -0.918,0.799 -1.959,1.705 -2.79,2.845 -0.832,1.145 -1.375,2.417 -1.854,3.54 -0.463,1.084 -0.901,2.108 -1.478,2.749 -0.579,0.643 -1.552,1.184 -2.583,1.757 -1.066,0.593 -2.275,1.265 -3.325,2.211 -1.051,0.946 -1.844,2.077 -2.544,3.075 -0.678,0.967 -1.318,1.88 -2.019,2.39 -0.695,0.506 -1.759,0.834 -2.886,1.181 -1.166,0.36 -2.488,0.768 -3.715,1.477 -1.218,0.705 -2.226,1.644 -3.115,2.473 -0.866,0.806 -1.683,1.568 -2.478,1.923 -0.784,0.349 -1.89,0.448 -3.062,0.552 -1.217,0.109 -2.597,0.232 -3.948,0.671 -0.155,0.05 -0.301,0.115 -0.451,0.172 l -18.235,-62.057 z"
             style="fill:#ffffff;fill-opacity:1;fill-rule:nonzero;stroke:none"
             id="path1378" />
        </g>
        <g
           id="g1380"
           transform="matrix(0.20677836,0,0,-0.20733788,50.094755,38.779364)"
           style="fill:#ffffff"
           clip-path="url(#clipPath3406)">
          <path
             d="m 0,0 h -12.848 c 5.443,10.192 9.167,21.435 10.772,33.342 H -5.518 C -7.188,21.387 -11.072,10.132 -16.734,0 h -10.561 c 8.646,13.472 13.66,29.496 13.66,46.693 0,47.81 -38.758,86.567 -86.568,86.567 -47.809,0 -86.567,-38.757 -86.567,-86.567 0,-17.197 5.015,-33.221 13.66,-46.693 h -11.399 c -5.661,10.132 -9.545,21.387 -11.215,33.342 h -3.444 c 1.605,-11.907 5.329,-23.15 10.772,-33.342 h -12.847 c -6.616,14.201 -10.32,30.021 -10.32,46.693 0,61.173 49.768,110.941 110.941,110.941 61.174,0 110.942,-49.768 110.942,-110.941 C 10.32,30.021 6.616,14.201 0,0 m -35.302,0 h -1.556 c 9.674,13.067 15.403,29.223 15.403,46.693 0,8.007 -1.206,15.736 -3.44,23.021 L -33.176,66.9 c 0.206,-1.925 -0.139,-4.009 0.262,-5.902 0.498,-2.353 2.231,-4.537 2.485,-6.971 0.248,-2.387 -0.996,-4.881 -0.996,-7.334 0,-2.453 1.244,-4.947 0.996,-7.334 -0.254,-2.434 -1.987,-4.618 -2.485,-6.97 -0.506,-2.39 0.192,-5.088 -0.552,-7.38 -0.753,-2.318 -2.906,-4.092 -3.888,-6.296 -0.991,-2.224 -0.874,-5.009 -2.085,-7.101 C -40.656,9.508 -43.13,8.222 -44.555,6.265 -45.922,4.386 -46.416,1.798 -47.876,0 h -4.55 c 0.924,0.517 1.78,1.018 2.306,1.602 0.577,0.64 1.014,1.665 1.477,2.749 0.479,1.123 1.022,2.395 1.854,3.539 0.831,1.14 1.872,2.046 2.79,2.845 0.892,0.775 1.734,1.508 2.169,2.26 0.431,0.744 0.645,1.835 0.873,2.99 0.235,1.199 0.503,2.557 1.081,3.853 0.571,1.282 1.398,2.382 2.128,3.352 0.713,0.947 1.385,1.841 1.655,2.672 0.263,0.811 0.245,1.92 0.226,3.094 -0.02,1.224 -0.044,2.611 0.251,4.005 0.29,1.368 0.867,2.613 1.376,3.711 0.5,1.079 0.973,2.096 1.064,2.974 0.087,0.838 -0.161,1.915 -0.423,3.055 -0.275,1.199 -0.588,2.558 -0.588,3.992 0,1.434 0.313,2.793 0.588,3.992 0.262,1.14 0.51,2.216 0.423,3.056 -0.091,0.876 -0.564,1.894 -1.064,2.971 -0.509,1.1 -1.087,2.345 -1.376,3.714 -0.295,1.393 -0.272,2.779 -0.252,4.003 0.009,0.541 0.015,1.064 -0.004,1.555 l -64.233,-21.827 c -0.147,-0.05 -0.296,-0.073 -0.442,-0.073 -0.573,0 -1.107,0.36 -1.301,0.932 -0.095,0.279 -0.093,0.566 -0.015,0.829 h -0.002 l 19.116,65.057 c -0.203,0.119 -0.406,0.239 -0.599,0.354 -1.018,0.61 -1.98,1.185 -2.837,1.367 -0.266,0.056 -0.572,0.084 -0.932,0.084 -0.651,0 -1.385,-0.09 -2.163,-0.185 -0.915,-0.112 -1.86,-0.228 -2.862,-0.228 -0.405,0 -0.784,0.02 -1.155,0.058 -1.39,0.144 -2.689,0.589 -3.835,0.981 -1.124,0.385 -2.186,0.749 -3.071,0.749 -0.885,0 -1.947,-0.364 -3.071,-0.749 -1.146,-0.392 -2.445,-0.837 -3.835,-0.981 -0.372,-0.038 -0.749,-0.058 -1.156,-0.058 -1.001,0 -1.947,0.116 -2.862,0.228 -0.777,0.095 -1.511,0.185 -2.162,0.185 -0.36,0 -0.665,-0.028 -0.932,-0.084 -0.858,-0.182 -1.82,-0.758 -2.838,-1.367 -1.04,-0.623 -2.218,-1.329 -3.551,-1.761 -1.351,-0.439 -2.731,-0.562 -3.947,-0.671 -1.172,-0.104 -2.279,-0.203 -3.061,-0.552 -0.797,-0.355 -1.614,-1.117 -2.48,-1.923 -0.889,-0.829 -1.897,-1.769 -3.115,-2.474 -1.227,-0.709 -2.549,-1.117 -3.716,-1.476 -1.126,-0.347 -2.19,-0.675 -2.885,-1.182 -0.701,-0.51 -1.342,-1.423 -2.019,-2.39 -0.7,-0.998 -1.493,-2.129 -2.543,-3.074 -1.05,-0.947 -2.259,-1.619 -3.326,-2.212 -1.03,-0.573 -2.004,-1.115 -2.583,-1.757 -0.577,-0.641 -1.014,-1.665 -1.477,-2.75 -0.479,-1.122 -1.022,-2.395 -1.855,-3.539 -0.83,-1.14 -1.871,-2.046 -2.79,-2.845 -0.892,-0.775 -1.734,-1.508 -2.169,-2.26 -0.43,-0.743 -0.645,-1.834 -0.872,-2.99 -0.235,-1.198 -0.503,-2.557 -1.08,-3.852 -0.572,-1.282 -1.399,-2.382 -2.129,-3.352 -0.712,-0.947 -1.385,-1.841 -1.655,-2.672 -0.263,-0.812 -0.245,-1.921 -0.225,-3.096 0.02,-1.223 0.043,-2.61 -0.252,-4.002 -0.289,-1.369 -0.867,-2.614 -1.376,-3.713 -0.5,-1.077 -0.972,-2.095 -1.063,-2.972 -0.088,-0.839 0.16,-1.916 0.422,-3.056 0.275,-1.199 0.588,-2.558 0.588,-3.992 0,-1.434 -0.313,-2.793 -0.588,-3.992 -0.262,-1.14 -0.51,-2.217 -0.422,-3.057 0.091,-0.876 0.563,-1.894 1.062,-2.972 0.51,-1.098 1.088,-2.343 1.377,-3.713 0.295,-1.392 0.272,-2.778 0.252,-4.002 -0.02,-1.174 -0.037,-2.284 0.226,-3.095 0.27,-0.832 0.942,-1.727 1.655,-2.673 0.729,-0.97 1.556,-2.07 2.128,-3.353 0.578,-1.295 0.845,-2.653 1.081,-3.852 0.227,-1.155 0.442,-2.246 0.872,-2.989 0.435,-0.752 1.277,-1.485 2.169,-2.26 0.919,-0.799 1.96,-1.705 2.79,-2.845 0.833,-1.145 1.375,-2.417 1.855,-3.54 0.462,-1.084 0.899,-2.108 1.477,-2.749 0.526,-0.584 1.381,-1.085 2.306,-1.601 h -4.551 c -1.46,1.798 -1.954,4.386 -3.321,6.264 -1.424,1.958 -3.899,3.243 -5.116,5.347 -1.21,2.093 -1.093,4.878 -2.084,7.101 -0.983,2.204 -3.135,3.977 -3.888,6.297 -0.745,2.291 -0.047,4.99 -0.553,7.379 -0.498,2.353 -2.232,4.537 -2.484,6.971 -0.248,2.387 0.995,4.881 0.995,7.334 0,2.453 -1.243,4.947 -0.995,7.334 0.252,2.434 1.986,4.617 2.484,6.97 0.506,2.39 -0.192,5.088 0.553,7.38 0.752,2.318 2.904,4.091 3.887,6.296 0.991,2.223 0.874,5.008 2.085,7.101 1.217,2.103 3.692,3.389 5.116,5.346 1.428,1.963 1.892,4.713 3.513,6.513 1.624,1.802 4.31,2.548 6.113,4.172 1.799,1.622 2.821,4.217 4.784,5.645 1.957,1.425 4.739,1.599 6.844,2.816 2.092,1.211 3.629,3.538 5.852,4.529 2.205,0.983 4.962,0.574 7.281,1.327 2.292,0.744 4.281,2.698 6.671,3.203 0.491,0.104 0.993,0.144 1.503,0.144 1.644,0 3.362,-0.413 5.024,-0.413 0.293,0 0.583,0.013 0.871,0.043 2.387,0.248 4.738,1.745 7.191,1.745 2.453,0 4.804,-1.497 7.192,-1.745 0.288,-0.03 0.577,-0.043 0.869,-0.043 1.663,0 3.381,0.413 5.025,0.413 0.509,0 1.012,-0.04 1.503,-0.144 1.304,-0.276 2.488,-0.982 3.668,-1.688 l 2.618,8.909 c -6.619,1.815 -13.583,2.789 -20.77,2.789 -43.363,0 -78.642,-35.278 -78.642,-78.642 0,-17.47 5.729,-33.626 15.403,-46.693 h -1.557 -4.103 c -9.316,13.665 -14.331,29.792 -14.331,46.693 0,22.203 8.647,43.078 24.347,58.778 15.7,15.7 36.575,24.347 58.778,24.347 22.204,0 43.079,-8.647 58.779,-24.347 15.7,-15.7 24.347,-36.575 24.347,-58.778 0,-16.901 -5.014,-33.028 -14.331,-46.693 z m -16.077,52.788 c 0.038,0.903 0.777,0.479 1.709,0.44 0.931,-0.039 1.703,0.321 1.665,-0.582 -0.039,-0.903 -0.824,-1.604 -1.756,-1.565 -0.932,0.039 -1.656,0.803 -1.618,1.707 M -70.395,34.871 c 0,6.292 5.101,11.392 11.392,11.392 6.291,0 11.392,-5.1 11.392,-11.392 0,-6.291 -5.101,-11.392 -11.392,-11.392 -6.291,0 -11.392,5.101 -11.392,11.392 M -62.354,8.81 c -0.96,-0.585 -2.227,-0.257 -2.83,0.732 -0.604,0.991 -0.315,2.266 0.645,2.852 0.96,0.585 1.032,-0.472 1.636,-1.461 0.604,-0.99 1.509,-1.538 0.549,-2.123 m -19.359,9.873 c -0.038,-0.903 -0.824,-1.603 -1.756,-1.565 -0.931,0.04 -1.656,0.804 -1.617,1.708 0.037,0.903 0.776,0.478 1.708,0.44 0.931,-0.039 1.704,0.32 1.665,-0.583 m -2.129,21.081 c -1.159,0 -2.098,-0.487 -2.098,0.637 0,1.124 0.939,2.035 2.098,2.035 1.16,0 2.099,-0.911 2.099,-2.035 0,-1.124 -0.939,-0.637 -2.099,-0.637 M -77.165,0 H -78.8 -80.449 -94.19 c -0.06,0.41 -0.101,0.825 -0.101,1.251 0,4.757 3.856,8.613 8.614,8.613 4.757,0 8.613,-3.856 8.613,-8.613 0,-0.426 -0.041,-0.841 -0.101,-1.251 m -21.849,92.665 c 0,2.455 1.99,4.445 4.446,4.445 2.455,0 4.446,-1.99 4.446,-4.445 0,-2.456 -1.991,-4.446 -4.446,-4.446 -2.456,0 -4.446,1.99 -4.446,4.446 m -0.133,-20.4 c -0.574,-0.699 -0.909,0.083 -1.631,0.675 -0.721,0.59 -1.554,0.767 -0.981,1.465 0.573,0.7 1.622,0.788 2.343,0.197 0.721,-0.592 0.842,-1.637 0.269,-2.337 m -8.082,23.128 c 0.574,0.7 1.623,0.788 2.344,0.196 0.721,-0.59 0.842,-1.636 0.268,-2.336 -0.573,-0.699 -0.908,0.083 -1.63,0.675 -0.721,0.591 -1.554,0.766 -0.982,1.465 m 1.546,-36.904 c 1.842,0 3.334,-1.493 3.334,-3.335 0,-1.841 -1.492,-3.334 -3.334,-3.334 -1.841,0 -3.334,1.493 -3.334,3.334 0,1.842 1.493,3.335 3.334,3.335 m -1.944,-43.902 c -6.446,0 -11.67,5.225 -11.67,11.67 0,6.446 5.224,11.67 11.67,11.67 6.445,0 11.669,-5.224 11.669,-11.67 0,-6.445 -5.224,-11.67 -11.669,-11.67 M -112.693,0 h -4.9 -0.595 -2.155 c -0.041,0.226 -0.066,0.457 -0.066,0.695 0,2.148 1.742,3.89 3.89,3.89 2.149,0 3.891,-1.742 3.891,-3.89 0,-0.238 -0.025,-0.469 -0.065,-0.695 m -7.305,14.43 c 0.96,0.584 1.032,-0.472 1.636,-1.462 0.603,-0.99 1.509,-1.538 0.549,-2.123 -0.96,-0.585 -2.227,-0.257 -2.83,0.733 -0.604,0.99 -0.315,2.266 0.645,2.852 m -2.382,33.989 c -0.809,-0.463 -1.27,-1.178 -1.719,-0.394 -0.449,0.785 -0.157,1.796 0.652,2.259 0.809,0.464 1.829,0.203 2.279,-0.582 0.449,-0.785 -0.402,-0.819 -1.212,-1.283 m -12.199,32.437 c 0,5.908 4.789,10.698 10.697,10.698 5.908,0 10.697,-4.79 10.697,-10.698 0,-5.908 -4.789,-10.697 -10.697,-10.697 -5.908,0 -10.697,4.789 -10.697,10.697 m -0.278,-67.102 c -3.223,0 -5.835,2.612 -5.835,5.835 0,3.223 2.612,5.835 5.835,5.835 3.222,0 5.835,-2.612 5.835,-5.835 0,-3.223 -2.613,-5.835 -5.835,-5.835 m -11.376,56.156 c 0,1.125 0.939,2.036 2.099,2.036 1.159,0 2.098,-0.911 2.098,-2.036 0,-1.123 -0.939,-0.635 -2.098,-0.635 -1.16,0 -2.099,-0.488 -2.099,0.635 m 2.762,-12.255 c 4.45,0 8.058,-3.607 8.058,-8.058 0,-4.45 -3.608,-8.058 -8.058,-8.058 -4.45,0 -8.058,3.608 -8.058,8.058 0,4.451 3.608,8.058 8.058,8.058 m 2.38,-28.621 c -0.959,-0.585 -2.226,-0.257 -2.83,0.733 -0.603,0.99 -0.315,2.266 0.646,2.852 0.959,0.585 1.032,-0.472 1.635,-1.461 0.603,-0.991 1.509,-1.538 0.549,-2.124 M 12.751,0 c 5.953,14.4 9.246,30.168 9.246,46.693 0,67.612 -55.006,122.619 -122.619,122.619 -67.612,0 -122.619,-55.007 -122.619,-122.619 0,-16.525 3.293,-32.293 9.246,-46.693 h -11.984 v -6.375 -5.303 H 24.736 V -6.375 0 Z"
             style="fill:#ffffff;fill-opacity:1;fill-rule:nonzero;stroke:none"
             id="path1382" />
        </g>
        <text
           xml:space="preserve"
           style="font-size:7.49611px;fill:#ff3f4b;stroke-width:0.624676;fill-opacity:1"
           x="5.7376842"
           y="62.492912"
           id="text3091"
           transform="scale(1.3059571,0.76572194)"
           inkscape:highlight-color="#ff3f4b"><tspan
             sodipodi:role="line"
             id="tspan3089"
             style="font-style:normal;font-variant:normal;font-weight:normal;font-stretch:normal;font-family:'Bernard MT Condensed';-inkscape-font-specification:'Bernard MT Condensed, ';fill:#ff3f4b;stroke-width:0.624676;fill-opacity:1"
             x="5.7376842"
             y="62.492912">Smart Menu</tspan></text>
        <text
           xml:space="preserve"
           style="font-size:2.72457px;fill:#ff3f4b;stroke-width:0.227047;image-rendering:auto;fill-opacity:1"
           x="20.02025"
           y="12.733228"
           id="text7017"
           transform="scale(1.2994679,0.76954575)"><tspan
             sodipodi:role="line"
             id="tspan7015"
             style="font-style:normal;font-variant:normal;font-weight:normal;font-stretch:normal;font-family:'Bernard MT Condensed';-inkscape-font-specification:'Bernard MT Condensed, ';fill:#ff3f4b;stroke-width:0.227047;fill-opacity:1"
             x="20.02025"
             y="12.733228">2022</tspan></text>
      </g>
    </g>
  </g>
</svg>
